<svg xmlns="http://www.w3.org/2000/svg" xmlns:xlink="http://www.w3.org/1999/xlink" width="36.816" height="43.714" viewBox="0 0 36.816 43.714">
  <defs>
    <clipPath id="clip-path">
      <path id="Caminho_1283" data-name="Caminho 1283" d="M59.558,85.7h4a2.3,2.3,0,0,1-1.74,1.073q-.14.014-.273.014A2.4,2.4,0,0,1,59.558,85.7m-1.394-1.359a1,1,0,0,1-1.056-1.082H66c-.02.736-.378,1.082-1.15,1.086-1.627.009-3.253,0-4.88,0l-.529,0-.523,0c-.25,0-.5,0-.75-.012m-1.053-3.806h8.9v1.353h-8.9Zm.019-2.863H66v1.5H57.13Zm6.742-13c0-.366-.013-.688,0-1.008a.941.941,0,0,1,.942-.912.959.959,0,0,1,.11,1.915c-.127.01-.255.014-.385.014-.212,0-.432-.009-.669-.009m-5.649,0a.943.943,0,0,1-.883-.962.955.955,0,0,1,.889-.959.926.926,0,0,1,1.01.823,9.8,9.8,0,0,1,.008,1.1c-.222,0-.434.007-.643.007-.128,0-.255,0-.381-.012m.971-14.141c-.541.09-.812.4-.737.8.077.416.405.6.951.509a12.141,12.141,0,0,1,4.674.08,11.6,11.6,0,0,1,5.094,20.061,6.537,6.537,0,0,0-1.992,3.248c-.093.35-.146.711-.22,1.077H63.811v-.469c0-1.746,0-3.491,0-5.237,0-.469-.233-.728-.627-.743-.41-.015-.674.261-.7.731,0,.1,0,.205,0,.308q0,2.486,0,4.973a.764.764,0,0,1-.04.427H60.65V66.016h1.835c0,.734,0,1.45,0,2.165a.665.665,0,0,0,.426.658.619.619,0,0,0,.69-.132.717.717,0,0,0,.209-.6c0-.7,0-1.4,0-2.113.412,0,.764.01,1.114,0a2.284,2.284,0,0,0-.069-4.566A2.252,2.252,0,0,0,62.55,63.6c-.013.347,0,.695,0,1.051h-1.93c-.019-.428-.007-.839-.06-1.241a2.285,2.285,0,0,0-4.549.349,2.28,2.28,0,0,0,2.257,2.235c.334.007.668,0,1.013,0v10.29H56.154c-.056-.3-.1-.575-.159-.846a7.838,7.838,0,0,0-2.443-3.871A11.592,11.592,0,0,1,56.713,52.7c.508-.247.682-.573.511-.954s-.548-.487-1.048-.264a12.955,12.955,0,0,0-7.206,14.6,13.142,13.142,0,0,0,4.058,6.84,5.151,5.151,0,0,1,1.785,3.605c.056.934.049.947.93,1.167v1.47a2.539,2.539,0,0,1-.434.017c-.444-.008-.884-.015-.909.613-.029.713.448.712.916.711a2.493,2.493,0,0,1,.433.023v1.385c-.227,0-.43,0-.633,0a.666.666,0,0,0-.742.635c-.011.4.277.663.744.69a1.868,1.868,0,0,0,.21,0,.911.911,0,0,1,.432.046,2.319,2.319,0,0,0,2.117,2.355c.226.043.269.187.345.34a3.68,3.68,0,0,0,6.68-.008.547.547,0,0,1,.483-.348,2.315,2.315,0,0,0,1.912-1.77c.043-.2.056-.4.083-.591a2.62,2.62,0,0,1,.427-.02c.444,0,.885.006.912-.624.031-.707-.424-.7-.869-.7a1.934,1.934,0,0,1-.463-.032V80.509h.494a1.774,1.774,0,0,0,.278-.009.644.644,0,0,0,.581-.7.616.616,0,0,0-.624-.611,2.076,2.076,0,0,0-.271,0,1.213,1.213,0,0,1-.468-.042V77.7c.864-.2.866-.21.923-1.1a5.525,5.525,0,0,1,2.158-4.025,12.278,12.278,0,0,0,3.963-8.192,12.493,12.493,0,0,0-4.656-11.087,12.317,12.317,0,0,0-8.1-2.981,14.979,14.979,0,0,0-2.467.211" transform="translate(-48.637 -50.311)" fill="#fefefe"/>
    </clipPath>
    <clipPath id="clip-path-2">
      <path id="Caminho_1284" data-name="Caminho 1284" d="M217.4,19.656a17.785,17.785,0,0,0-1.5,2.711.618.618,0,0,0,.308.85.637.637,0,0,0,.889-.312q.641-1.094,1.248-2.207a3.892,3.892,0,0,0,.213-.554.665.665,0,0,0-.412-.681.841.841,0,0,0-.291-.056.514.514,0,0,0-.457.248" transform="translate(-215.842 -19.408)" fill="#fefefe"/>
    </clipPath>
    <clipPath id="clip-path-3">
      <path id="Caminho_1285" data-name="Caminho 1285" d="M74.236,19.831a.828.828,0,0,0,.089.676c.4.846.9,1.643,1.37,2.449a.684.684,0,0,0,.533.316.634.634,0,0,0,.646-.839,13.613,13.613,0,0,0-1.537-2.8.54.54,0,0,0-.462-.244.7.7,0,0,0-.639.441" transform="translate(-74.195 -19.39)" fill="#fefefe"/>
    </clipPath>
    <clipPath id="clip-path-4">
      <path id="Caminho_1286" data-name="Caminho 1286" d="M151.562,0c-.391,0-.639.266-.655.725-.014.41,0,.821,0,1.232s-.009.851,0,1.276c.013.483.27.764.669.76a.659.659,0,0,0,.655-.729q.02-1.275,0-2.551A.643.643,0,0,0,151.57,0h-.008" transform="translate(-150.9)" fill="#fefefe"/>
    </clipPath>
    <clipPath id="clip-path-5">
      <path id="Caminho_1287" data-name="Caminho 1287" d="M2.414,154.976l-.4,0c-.425,0-.851-.007-1.275,0-.468.009-.727.239-.736.633a.639.639,0,0,0,.7.681q1.3.023,2.595,0a.639.639,0,0,0,.693-.684.63.63,0,0,0-.7-.629c-.167,0-.335-.006-.5-.006H2.414" transform="translate(-0.001 -154.975)" fill="#fefefe"/>
    </clipPath>
    <clipPath id="clip-path-6">
      <path id="Caminho_1288" data-name="Caminho 1288" d="M280.026,154.979c-.467.011-.725.243-.733.638a.645.645,0,0,0,.7.682q1.3.025,2.595,0a.641.641,0,0,0,.69-.652v-.019c0-.006,0-.013,0-.019a.635.635,0,0,0-.7-.628c-.292-.009-.583-.007-.875,0l-.4,0c-.263,0-.526,0-.789,0-.162,0-.325,0-.487,0" transform="translate(-279.293 -154.974)" fill="#fefefe"/>
    </clipPath>
    <clipPath id="clip-path-7">
      <path id="Caminho_1289" data-name="Caminho 1289" d="M260.764,220.11a.591.591,0,0,0,.19.849c.793.492,1.6.967,2.421,1.4a.642.642,0,0,0,.935-.581.608.608,0,0,0-.292-.556c-.792-.465-1.583-.932-2.388-1.376a.646.646,0,0,0-.312-.083.632.632,0,0,0-.555.342" transform="translate(-260.663 -219.768)" fill="#fefefe"/>
    </clipPath>
    <clipPath id="clip-path-8">
      <path id="Caminho_1290" data-name="Caminho 1290" d="M24.044,220.026c-.739.411-1.469.838-2.2,1.268a.673.673,0,0,0-.306.927.659.659,0,0,0,.95.222c.751-.419,1.493-.856,2.238-1.287a.684.684,0,0,0,.371-.566.646.646,0,0,0-.651-.676.834.834,0,0,0-.4.111" transform="translate(-21.456 -219.915)" fill="#fefefe"/>
    </clipPath>
    <clipPath id="clip-path-9">
      <path id="Caminho_1291" data-name="Caminho 1291" d="M19.473,78.786a.538.538,0,0,0,.261.5c.814.485,1.627.973,2.464,1.417a.585.585,0,0,0,.821-.285.577.577,0,0,0-.164-.819c-.818-.506-1.65-.992-2.5-1.44A.54.54,0,0,0,20.1,78.1a.673.673,0,0,0-.628.69" transform="translate(-19.472 -78.096)" fill="#fefefe"/>
    </clipPath>
    <clipPath id="clip-path-10">
      <path id="Caminho_1292" data-name="Caminho 1292" d="M265.486,78.135c-.833.451-1.652.929-2.465,1.415a.587.587,0,0,0-.232.737.634.634,0,0,0,.7.437.867.867,0,0,0,.234-.07c.786-.447,1.574-.89,2.348-1.357a.614.614,0,0,0,.236-.874.651.651,0,0,0-.536-.364.589.589,0,0,0-.281.077" transform="translate(-262.747 -78.058)" fill="#fefefe"/>
    </clipPath>
  </defs>
  <g id="Grupo_864" data-name="Grupo 864" transform="translate(0)">
    <g id="Grupo_845" data-name="Grupo 845" transform="translate(5.718 5.914)">
      <g id="Grupo_844" data-name="Grupo 844" clip-path="url(#clip-path)">
        <rect id="Retângulo_755" data-name="Retângulo 755" width="27.196" height="37.809" transform="translate(-1.062 0)" fill="#fefefe"/>
      </g>
    </g>
    <g id="Grupo_847" data-name="Grupo 847" transform="translate(25.374 2.282)">
      <g id="Grupo_846" data-name="Grupo 846" clip-path="url(#clip-path-2)">
        <rect id="Retângulo_756" data-name="Retângulo 756" width="2.809" height="3.987" transform="translate(-0.086 0)" fill="#fefefe"/>
      </g>
    </g>
    <g id="Grupo_849" data-name="Grupo 849" transform="translate(8.722 2.279)">
      <g id="Grupo_848" data-name="Grupo 848" clip-path="url(#clip-path-3)">
        <rect id="Retângulo_757" data-name="Retângulo 757" width="2.895" height="3.923" transform="translate(-0.053 0)" fill="#fefefe"/>
      </g>
    </g>
    <g id="Grupo_851" data-name="Grupo 851" transform="translate(17.739)">
      <g id="Grupo_850" data-name="Grupo 850" clip-path="url(#clip-path-4)">
        <rect id="Retângulo_758" data-name="Retângulo 758" width="1.351" height="3.997" transform="translate(-0.007)" fill="#fefefe"/>
      </g>
    </g>
    <g id="Grupo_853" data-name="Grupo 853" transform="translate(0 18.218)">
      <g id="Grupo_852" data-name="Grupo 852" clip-path="url(#clip-path-5)">
        <rect id="Retângulo_759" data-name="Retângulo 759" width="4.004" height="1.338" transform="translate(-0.01 -0.004)" fill="#fefefe"/>
      </g>
    </g>
    <g id="Grupo_855" data-name="Grupo 855" transform="translate(32.833 18.218)">
      <g id="Grupo_854" data-name="Grupo 854" clip-path="url(#clip-path-6)">
        <rect id="Retângulo_760" data-name="Retângulo 760" width="3.991" height="1.345" transform="translate(-0.008 -0.002)" fill="#fefefe"/>
      </g>
    </g>
    <g id="Grupo_857" data-name="Grupo 857" transform="translate(30.643 25.835)">
      <g id="Grupo_856" data-name="Grupo 856" clip-path="url(#clip-path-7)">
        <rect id="Retângulo_761" data-name="Retângulo 761" width="3.727" height="2.828" transform="translate(-0.08)" fill="#fefefe"/>
      </g>
    </g>
    <g id="Grupo_859" data-name="Grupo 859" transform="translate(2.522 25.853)">
      <g id="Grupo_858" data-name="Grupo 858" clip-path="url(#clip-path-8)">
        <rect id="Retângulo_762" data-name="Retângulo 762" width="3.74" height="2.741" transform="translate(-0.097 0)" fill="#fefefe"/>
      </g>
    </g>
    <g id="Grupo_861" data-name="Grupo 861" transform="translate(2.289 9.181)">
      <g id="Grupo_860" data-name="Grupo 860" clip-path="url(#clip-path-9)">
        <rect id="Retângulo_763" data-name="Retângulo 763" width="3.724" height="2.774" transform="translate(-0.01 0)" fill="#fefefe"/>
      </g>
    </g>
    <g id="Grupo_863" data-name="Grupo 863" transform="translate(30.888 9.176)">
      <g id="Grupo_862" data-name="Grupo 862" clip-path="url(#clip-path-10)">
        <rect id="Retângulo_764" data-name="Retângulo 764" width="3.793" height="2.673" transform="translate(-0.052 0)" fill="#fefefe"/>
      </g>
    </g>
  </g>
</svg>
