<svg id="IMAGEM_2_CABEÇAS" data-name="IMAGEM 2 CABEÇAS" xmlns="http://www.w3.org/2000/svg" xmlns:xlink="http://www.w3.org/1999/xlink" width="612.05" height="474.469" viewBox="0 0 612.05 474.469">
  <defs>
    <clipPath id="clip-path">
      <rect id="Retângulo_115" data-name="Retângulo 115" width="612.05" height="474.469" fill="none"/>
    </clipPath>
    <clipPath id="clip-path-3">
      <rect id="Retângulo_104" data-name="Retângulo 104" width="416.699" height="474.469" transform="translate(195.351)" fill="none"/>
    </clipPath>
    <clipPath id="clip-path-4">
      <rect id="Retângulo_105" data-name="Retângulo 105" width="416.699" height="474.469" fill="none"/>
    </clipPath>
    <clipPath id="clip-path-5">
      <rect id="Retângulo_106" data-name="Retângulo 106" width="324" height="230" transform="translate(145.735 33.469)" fill="none"/>
    </clipPath>
    <clipPath id="clip-path-6">
      <rect id="Retângulo_107" data-name="Retângulo 107" width="248.667" height="314.85" transform="translate(212.579 28.353)" fill="none"/>
    </clipPath>
    <clipPath id="clip-path-7">
      <rect id="Retângulo_108" data-name="Retângulo 108" width="330.514" height="292.775" transform="translate(138.401 57.761)" fill="none"/>
    </clipPath>
    <clipPath id="clip-path-8">
      <rect id="Retângulo_109" data-name="Retângulo 109" width="330.514" height="292.775" transform="translate(98.401 36.761)" fill="none"/>
    </clipPath>
  </defs>
  <g id="Grupo_143" data-name="Grupo 143" clip-path="url(#clip-path)">
    <g id="Grupo_142" data-name="Grupo 142">
      <g id="Grupo_141" data-name="Grupo 141" clip-path="url(#clip-path)">
        <g id="Grupo_113" data-name="Grupo 113" style="mix-blend-mode: multiply;isolation: isolate">
          <g id="Grupo_112" data-name="Grupo 112">
            <g id="Grupo_111" data-name="Grupo 111" clip-path="url(#clip-path-3)">
              <path id="Caminho_181" data-name="Caminho 181" d="M241.252,474.469H471.494c-.759-9.428-1.816-18.537-2.166-27.674-.9-23.442,7.127-32.848,30.237-36.58,8.247-1.332,16.514-1.3,24.8-1.535a146.932,146.932,0,0,0,15.308-1.007c27-3.61,40.253-25.661,30.545-51.268-2.245-5.92-1.31-10.167,2.89-14.5,8.2-8.45,8.227-11.513.835-20.234,12.284-4.384,15.074-11.427,9.134-23.055-4.06-7.948-2.9-11.409,5.242-14.753,3.6-1.478,7.4-2.453,11.019-3.875,12.753-5.007,16.282-14.635,8.892-26.169-8.278-12.918-16.613-25.892-26.086-37.927-10.873-13.813-15.487-27.591-14.068-46.181,5.245-68.742-29.449-125.308-93.436-151.145-61.357-24.776-124-25.648-184.634,2.76-76.152,35.678-114.571,131.271-84.28,207.1a478.19,478.19,0,0,0,26.743,55.184c27.46,49.248,33.019,100.684,17.922,154.728-3.27,11.707-5.979,23.57-9.139,36.125" fill="#606060"/>
            </g>
          </g>
        </g>
        <g id="Grupo_116" data-name="Grupo 116" style="mix-blend-mode: multiply;isolation: isolate">
          <g id="Grupo_115" data-name="Grupo 115">
            <g id="Grupo_114" data-name="Grupo 114" clip-path="url(#clip-path-4)">
              <path id="Caminho_182" data-name="Caminho 182" d="M370.8,474.469H140.556c.759-9.428,1.816-18.537,2.166-27.674.9-23.442-7.127-32.848-30.237-36.58-8.247-1.332-16.514-1.3-24.8-1.535a146.933,146.933,0,0,1-15.308-1.007c-27-3.61-40.253-25.661-30.545-51.268,2.245-5.92,1.31-10.167-2.89-14.5-8.2-8.45-8.227-11.513-.835-20.234-12.284-4.384-15.074-11.427-9.134-23.055,4.06-7.948,2.9-11.409-5.242-14.753-3.6-1.478-7.4-2.453-11.019-3.875C-.041,274.985-3.57,265.357,3.82,253.823,12.1,240.9,20.433,227.931,29.906,215.9c10.873-13.813,15.487-27.591,14.068-46.181C38.729,100.973,73.423,44.407,137.41,18.57c61.357-24.776,124-25.648,184.634,2.76,76.152,35.678,114.571,131.271,84.28,207.1a478.19,478.19,0,0,1-26.743,55.184c-27.46,49.248-33.019,100.684-17.922,154.728,3.27,11.707,5.979,23.57,9.139,36.125" fill="#606060"/>
            </g>
          </g>
        </g>
        <g id="Grupo_119" data-name="Grupo 119" style="mix-blend-mode: hard-light;isolation: isolate">
          <g id="Grupo_118" data-name="Grupo 118">
            <g id="Grupo_117" data-name="Grupo 117" clip-path="url(#clip-path-5)">
              <path id="Caminho_183" data-name="Caminho 183" d="M332.736,114.469a41,41,0,1,1-41-41,41,41,0,0,1,41,41" fill="#fff"/>
              <path id="Caminho_184" data-name="Caminho 184" d="M388.736,229.469a30,30,0,1,1-30-30,30,30,0,0,1,30,30" fill="#fff"/>
              <path id="Caminho_185" data-name="Caminho 185" d="M205.736,118.469a30,30,0,1,1-30-30,30,30,0,0,1,30,30" fill="#fff"/>
              <path id="Caminho_186" data-name="Caminho 186" d="M469.736,185.469a21,21,0,1,1-21-21,21,21,0,0,1,21,21" fill="#fff"/>
              <path id="Caminho_187" data-name="Caminho 187" d="M381.736,67.469a21,21,0,1,1-21-21,21,21,0,0,1,21,21" fill="#fff"/>
              <path id="Caminho_188" data-name="Caminho 188" d="M305.736,181.469a21,21,0,1,1-21-21,21,21,0,0,1,21,21" fill="#fff"/>
              <path id="Caminho_189" data-name="Caminho 189" d="M461.736,108.469a13,13,0,1,1-13-13,13,13,0,0,1,13,13" fill="#fff"/>
              <path id="Caminho_190" data-name="Caminho 190" d="M191.736,250.469a13,13,0,1,1-13-13,13,13,0,0,1,13,13" fill="#fff"/>
              <path id="Caminho_191" data-name="Caminho 191" d="M376.736,151.469a13,13,0,1,1-13-13,13,13,0,0,1,13,13" fill="#fff"/>
              <path id="Caminho_192" data-name="Caminho 192" d="M191.736,46.469a13,13,0,1,1-13-13,13,13,0,0,1,13,13" fill="#fff"/>
              <path id="Caminho_193" data-name="Caminho 193" d="M191.736,185.469a13,13,0,1,1-13-13,13,13,0,0,1,13,13" fill="#fff"/>
            </g>
          </g>
        </g>
        <g id="Grupo_122" data-name="Grupo 122" style="mix-blend-mode: hard-light;isolation: isolate">
          <g id="Grupo_121" data-name="Grupo 121">
            <g id="Grupo_120" data-name="Grupo 120" clip-path="url(#clip-path-6)">
              <path id="Caminho_194" data-name="Caminho 194" d="M313.782,157.1a41,41,0,1,1-46.168,35.079A41,41,0,0,1,313.782,157.1" fill="#fff"/>
              <path id="Caminho_195" data-name="Caminho 195" d="M435.3,117.167a30,30,0,1,1-33.782,25.667A30,30,0,0,1,435.3,117.167" fill="#fff"/>
              <path id="Caminho_196" data-name="Caminho 196" d="M300.57,283.475a30,30,0,1,1-33.781,25.667,30,30,0,0,1,33.781-25.667" fill="#fff"/>
              <path id="Caminho_197" data-name="Caminho 197" d="M402.658,30.961a21,21,0,1,1-23.647,17.967,21,21,0,0,1,23.647-17.967" fill="#fff"/>
              <path id="Caminho_198" data-name="Caminho 198" d="M273.841,102.195a21,21,0,1,1-23.647,17.967,21,21,0,0,1,23.647-17.967" fill="#fff"/>
              <path id="Caminho_199" data-name="Caminho 199" d="M376.515,192.913a21,21,0,1,1-23.647,17.967,21,21,0,0,1,23.647-17.967" fill="#fff"/>
              <path id="Caminho_200" data-name="Caminho 200" d="M325.283,28.474A13,13,0,1,1,310.644,39.6a13,13,0,0,1,14.639-11.122" fill="#fff"/>
              <path id="Caminho_201" data-name="Caminho 201" d="M429.464,315.2a13,13,0,1,1-14.639,11.123A13,13,0,0,1,429.464,315.2" fill="#fff"/>
              <path id="Caminho_202" data-name="Caminho 202" d="M356.393,118.509a13,13,0,1,1-14.639,11.122,13,13,0,0,1,14.639-11.122" fill="#fff"/>
              <path id="Caminho_203" data-name="Caminho 203" d="M227.339,287.609a13,13,0,1,1-14.64,11.122,13,13,0,0,1,14.64-11.122" fill="#fff"/>
              <path id="Caminho_204" data-name="Caminho 204" d="M365.062,306.407a13,13,0,1,1-14.639,11.122,13,13,0,0,1,14.639-11.122" fill="#fff"/>
            </g>
          </g>
        </g>
        <g id="Grupo_125" data-name="Grupo 125" style="mix-blend-mode: hard-light;isolation: isolate">
          <g id="Grupo_124" data-name="Grupo 124">
            <g id="Grupo_123" data-name="Grupo 123" clip-path="url(#clip-path-7)">
              <path id="Caminho_205" data-name="Caminho 205" d="M265.4,72.228a30,30,0,1,1,10.126,41.2,30,30,0,0,1-10.126-41.2" fill="#fff"/>
              <path id="Caminho_206" data-name="Caminho 206" d="M364.452,261.959a30,30,0,1,1,10.126,41.2,30,30,0,0,1-10.126-41.2" fill="#fff"/>
              <path id="Caminho_207" data-name="Caminho 207" d="M173.318,67.916a21,21,0,1,1,7.088,28.84,21,21,0,0,1-7.088-28.84" fill="#fff"/>
              <path id="Caminho_208" data-name="Caminho 208" d="M187.482,214.433a21,21,0,1,1,7.088,28.84,21,21,0,0,1-7.088-28.84" fill="#fff"/>
              <path id="Caminho_209" data-name="Caminho 209" d="M311.538,156.276a21,21,0,1,1,7.088,28.84,21,21,0,0,1-7.088-28.84" fill="#fff"/>
              <path id="Caminho_210" data-name="Caminho 210" d="M140.282,137.927a13,13,0,1,1,4.388,17.854,13,13,0,0,1-4.388-17.854" fill="#fff"/>
              <path id="Caminho_211" data-name="Caminho 211" d="M444.793,156.293a13,13,0,1,1,4.388,17.854,13,13,0,0,1-4.388-17.854" fill="#fff"/>
              <path id="Caminho_212" data-name="Caminho 212" d="M235.264,145.167a13,13,0,1,1,4.388,17.853,13,13,0,0,1-4.388-17.853" fill="#fff"/>
              <path id="Caminho_213" data-name="Caminho 213" d="M339.138,330.8a13,13,0,1,1,4.388,17.854,13,13,0,0,1-4.388-17.854" fill="#fff"/>
              <path id="Caminho_214" data-name="Caminho 214" d="M411.129,211.9a13,13,0,1,1,4.387,17.854,13,13,0,0,1-4.387-17.854" fill="#fff"/>
            </g>
          </g>
        </g>
        <g id="Grupo_128" data-name="Grupo 128" style="mix-blend-mode: hard-light;isolation: isolate">
          <g id="Grupo_127" data-name="Grupo 127">
            <g id="Grupo_126" data-name="Grupo 126" clip-path="url(#clip-path-8)">
              <path id="Caminho_215" data-name="Caminho 215" d="M213.741,187.691a41,41,0,1,0,13.838-56.307,41,41,0,0,0-13.838,56.307" fill="#fff"/>
              <path id="Caminho_216" data-name="Caminho 216" d="M225.4,315.069a30,30,0,1,0,10.126-41.2,30,30,0,0,0-10.126,41.2" fill="#fff"/>
              <path id="Caminho_217" data-name="Caminho 217" d="M324.452,125.338a30,30,0,1,0,10.126-41.2,30,30,0,0,0-10.126,41.2" fill="#fff"/>
              <path id="Caminho_218" data-name="Caminho 218" d="M133.318,319.381a21,21,0,1,0,7.088-28.84,21,21,0,0,0-7.088,28.84" fill="#fff"/>
              <path id="Caminho_219" data-name="Caminho 219" d="M147.482,172.864a21,21,0,1,0,7.088-28.84,21,21,0,0,0-7.088,28.84" fill="#fff"/>
              <path id="Caminho_220" data-name="Caminho 220" d="M271.538,231.021a21,21,0,1,0,7.088-28.84,21,21,0,0,0-7.088,28.84" fill="#fff"/>
              <path id="Caminho_221" data-name="Caminho 221" d="M100.282,249.369a13,13,0,1,0,4.388-17.853,13,13,0,0,0-4.388,17.853" fill="#fff"/>
              <path id="Caminho_222" data-name="Caminho 222" d="M404.793,231a13,13,0,1,0,4.388-17.854A13,13,0,0,0,404.793,231" fill="#fff"/>
              <path id="Caminho_223" data-name="Caminho 223" d="M195.264,242.13a13,13,0,1,0,4.388-17.854,13,13,0,0,0-4.388,17.854" fill="#fff"/>
              <path id="Caminho_224" data-name="Caminho 224" d="M299.138,56.5a13,13,0,1,0,4.388-17.854A13,13,0,0,0,299.138,56.5" fill="#fff"/>
              <path id="Caminho_225" data-name="Caminho 225" d="M371.129,175.4a13,13,0,1,0,4.387-17.853,13,13,0,0,0-4.387,17.853" fill="#fff"/>
            </g>
          </g>
        </g>
        <g id="Grupo_131" data-name="Grupo 131" style="mix-blend-mode: multiply;isolation: isolate">
          <g id="Grupo_130" data-name="Grupo 130">
            <g id="Grupo_129" data-name="Grupo 129" clip-path="url(#clip-path-5)">
              <path id="Caminho_226" data-name="Caminho 226" d="M332.736,114.469a41,41,0,1,1-41-41,41,41,0,0,1,41,41" fill="#d8455b"/>
              <path id="Caminho_227" data-name="Caminho 227" d="M388.736,229.469a30,30,0,1,1-30-30,30,30,0,0,1,30,30" fill="#d8455b"/>
              <path id="Caminho_228" data-name="Caminho 228" d="M205.736,118.469a30,30,0,1,1-30-30,30,30,0,0,1,30,30" fill="#d8455b"/>
              <path id="Caminho_229" data-name="Caminho 229" d="M469.736,185.469a21,21,0,1,1-21-21,21,21,0,0,1,21,21" fill="#d8455b"/>
              <path id="Caminho_230" data-name="Caminho 230" d="M381.736,67.469a21,21,0,1,1-21-21,21,21,0,0,1,21,21" fill="#d8455b"/>
              <path id="Caminho_231" data-name="Caminho 231" d="M305.736,181.469a21,21,0,1,1-21-21,21,21,0,0,1,21,21" fill="#d8455b"/>
              <path id="Caminho_232" data-name="Caminho 232" d="M461.736,108.469a13,13,0,1,1-13-13,13,13,0,0,1,13,13" fill="#d8455b"/>
              <path id="Caminho_233" data-name="Caminho 233" d="M191.736,250.469a13,13,0,1,1-13-13,13,13,0,0,1,13,13" fill="#d8455b"/>
              <path id="Caminho_234" data-name="Caminho 234" d="M376.736,151.469a13,13,0,1,1-13-13,13,13,0,0,1,13,13" fill="#d8455b"/>
              <path id="Caminho_235" data-name="Caminho 235" d="M191.736,46.469a13,13,0,1,1-13-13,13,13,0,0,1,13,13" fill="#d8455b"/>
              <path id="Caminho_236" data-name="Caminho 236" d="M191.736,185.469a13,13,0,1,1-13-13,13,13,0,0,1,13,13" fill="#d8455b"/>
              <line id="Linha_2" data-name="Linha 2" y1="12" x2="84" transform="translate(191.736 113.469)" fill="none" stroke="#d8455b" stroke-miterlimit="10" stroke-width="1"/>
              <line id="Linha_3" data-name="Linha 3" x1="176" y2="11" transform="translate(178.236 238.969)" fill="none" stroke="#d8455b" stroke-miterlimit="10" stroke-width="1"/>
              <line id="Linha_4" data-name="Linha 4" x1="70" y1="48" transform="translate(284.236 180.969)" fill="none" stroke="#d8455b" stroke-miterlimit="10" stroke-width="1"/>
              <line id="Linha_5" data-name="Linha 5" x1="98" y2="3" transform="translate(181.236 181.969)" fill="none" stroke="#d8455b" stroke-miterlimit="10" stroke-width="1"/>
              <line id="Linha_6" data-name="Linha 6" y1="47" x2="82" transform="translate(369.236 184.969)" fill="none" stroke="#d8455b" stroke-miterlimit="10" stroke-width="1"/>
              <line id="Linha_7" data-name="Linha 7" x2="3" y2="78" transform="translate(448.236 106.969)" fill="none" stroke="#d8455b" stroke-miterlimit="10" stroke-width="1"/>
              <line id="Linha_8" data-name="Linha 8" y1="43" x2="85" transform="translate(363.236 106.969)" fill="none" stroke="#d8455b" stroke-miterlimit="10" stroke-width="1"/>
              <line id="Linha_9" data-name="Linha 9" x2="3" y2="84" transform="translate(360.236 65.969)" fill="none" stroke="#d8455b" stroke-miterlimit="10" stroke-width="1"/>
              <line id="Linha_10" data-name="Linha 10" y1="82" x2="5" transform="translate(358.236 149.969)" fill="none" stroke="#d8455b" stroke-miterlimit="10" stroke-width="1"/>
              <line id="Linha_11" data-name="Linha 11" x2="71" y2="33" transform="translate(292.236 116.969)" fill="none" stroke="#d8455b" stroke-miterlimit="10" stroke-width="1"/>
              <line id="Linha_12" data-name="Linha 12" x1="68" y2="51" transform="translate(292.236 65.969)" fill="none" stroke="#d8455b" stroke-miterlimit="10" stroke-width="1"/>
              <line id="Linha_13" data-name="Linha 13" x1="90" y1="42" transform="translate(360.236 65.969)" fill="none" stroke="#d8455b" stroke-miterlimit="10" stroke-width="1"/>
              <line id="Linha_14" data-name="Linha 14" x2="179" y2="20" transform="translate(181.236 45.969)" fill="none" stroke="#d8455b" stroke-miterlimit="10" stroke-width="1"/>
              <line id="Linha_15" data-name="Linha 15" x1="111" y1="71" transform="translate(181.236 45.969)" fill="none" stroke="#d8455b" stroke-miterlimit="10" stroke-width="1"/>
              <line id="Linha_16" data-name="Linha 16" x1="106" y2="69" transform="translate(178.236 180.969)" fill="none" stroke="#d8455b" stroke-miterlimit="10" stroke-width="1"/>
            </g>
          </g>
        </g>
        <g id="Grupo_134" data-name="Grupo 134" style="mix-blend-mode: multiply;isolation: isolate">
          <g id="Grupo_133" data-name="Grupo 133">
            <g id="Grupo_132" data-name="Grupo 132" clip-path="url(#clip-path-6)">
              <path id="Caminho_237" data-name="Caminho 237" d="M313.782,157.1a41,41,0,1,1-46.168,35.079A41,41,0,0,1,313.782,157.1" fill="#43d7c2"/>
              <path id="Caminho_238" data-name="Caminho 238" d="M435.3,117.167a30,30,0,1,1-33.782,25.667A30,30,0,0,1,435.3,117.167" fill="#43d7c2"/>
              <path id="Caminho_239" data-name="Caminho 239" d="M300.57,283.475a30,30,0,1,1-33.781,25.667,30,30,0,0,1,33.781-25.667" fill="#43d7c2"/>
              <path id="Caminho_240" data-name="Caminho 240" d="M402.658,30.961a21,21,0,1,1-23.647,17.967,21,21,0,0,1,23.647-17.967" fill="#43d7c2"/>
              <path id="Caminho_241" data-name="Caminho 241" d="M273.841,102.195a21,21,0,1,1-23.647,17.967,21,21,0,0,1,23.647-17.967" fill="#43d7c2"/>
              <path id="Caminho_242" data-name="Caminho 242" d="M376.515,192.913a21,21,0,1,1-23.647,17.967,21,21,0,0,1,23.647-17.967" fill="#43d7c2"/>
              <path id="Caminho_243" data-name="Caminho 243" d="M325.283,28.474A13,13,0,1,1,310.644,39.6a13,13,0,0,1,14.639-11.122" fill="#43d7c2"/>
              <path id="Caminho_244" data-name="Caminho 244" d="M429.464,315.2a13,13,0,1,1-14.639,11.123A13,13,0,0,1,429.464,315.2" fill="#43d7c2"/>
              <path id="Caminho_245" data-name="Caminho 245" d="M356.393,118.509a13,13,0,1,1-14.639,11.122,13,13,0,0,1,14.639-11.122" fill="#43d7c2"/>
              <path id="Caminho_246" data-name="Caminho 246" d="M227.339,287.609a13,13,0,1,1-14.64,11.122,13,13,0,0,1,14.64-11.122" fill="#43d7c2"/>
              <path id="Caminho_247" data-name="Caminho 247" d="M365.062,306.407a13,13,0,1,1-14.639,11.122,13,13,0,0,1,14.639-11.122" fill="#43d7c2"/>
              <line id="Linha_17" data-name="Linha 17" x1="54" y1="115" transform="translate(373.736 213.469)" fill="none" stroke="#43d7c2" stroke-miterlimit="10" stroke-width="1"/>
              <line id="Linha_18" data-name="Linha 18" y1="106" x2="10" transform="translate(363.736 213.469)" fill="none" stroke="#43d7c2" stroke-miterlimit="10" stroke-width="1"/>
              <line id="Linha_19" data-name="Linha 19" x2="66" y2="9" transform="translate(297.736 310.469)" fill="none" stroke="#43d7c2" stroke-miterlimit="10" stroke-width="1"/>
              <line id="Linha_20" data-name="Linha 20" y1="105" x2="85" transform="translate(225.236 195.969)" fill="none" stroke="#43d7c2" stroke-miterlimit="10" stroke-width="1"/>
            </g>
          </g>
        </g>
        <g id="Grupo_137" data-name="Grupo 137" style="mix-blend-mode: multiply;isolation: isolate">
          <g id="Grupo_136" data-name="Grupo 136">
            <g id="Grupo_135" data-name="Grupo 135" clip-path="url(#clip-path-7)">
              <path id="Caminho_248" data-name="Caminho 248" d="M265.4,72.228a30,30,0,1,1,10.126,41.2,30,30,0,0,1-10.126-41.2" fill="#59c9f4"/>
              <path id="Caminho_249" data-name="Caminho 249" d="M364.452,261.959a30,30,0,1,1,10.126,41.2,30,30,0,0,1-10.126-41.2" fill="#59c9f4"/>
              <path id="Caminho_250" data-name="Caminho 250" d="M173.318,67.916a21,21,0,1,1,7.088,28.84,21,21,0,0,1-7.088-28.84" fill="#59c9f4"/>
              <path id="Caminho_251" data-name="Caminho 251" d="M187.482,214.433a21,21,0,1,1,7.088,28.84,21,21,0,0,1-7.088-28.84" fill="#59c9f4"/>
              <path id="Caminho_252" data-name="Caminho 252" d="M311.538,156.276a21,21,0,1,1,7.088,28.84,21,21,0,0,1-7.088-28.84" fill="#59c9f4"/>
              <path id="Caminho_253" data-name="Caminho 253" d="M140.282,137.927a13,13,0,1,1,4.388,17.854,13,13,0,0,1-4.388-17.854" fill="#59c9f4"/>
              <path id="Caminho_254" data-name="Caminho 254" d="M444.793,156.293a13,13,0,1,1,4.388,17.854,13,13,0,0,1-4.388-17.854" fill="#59c9f4"/>
              <path id="Caminho_255" data-name="Caminho 255" d="M235.264,145.167a13,13,0,1,1,4.388,17.853,13,13,0,0,1-4.388-17.853" fill="#59c9f4"/>
              <path id="Caminho_256" data-name="Caminho 256" d="M339.138,330.8a13,13,0,1,1,4.388,17.854,13,13,0,0,1-4.388-17.854" fill="#59c9f4"/>
              <path id="Caminho_257" data-name="Caminho 257" d="M411.129,211.9a13,13,0,1,1,4.387,17.854,13,13,0,0,1-4.387-17.854" fill="#59c9f4"/>
            </g>
          </g>
        </g>
        <g id="Grupo_140" data-name="Grupo 140" style="mix-blend-mode: multiply;isolation: isolate">
          <g id="Grupo_139" data-name="Grupo 139">
            <g id="Grupo_138" data-name="Grupo 138" clip-path="url(#clip-path-8)">
              <path id="Caminho_258" data-name="Caminho 258" d="M213.741,187.691a41,41,0,1,0,13.838-56.307,41,41,0,0,0-13.838,56.307" fill="#facd4a"/>
              <path id="Caminho_259" data-name="Caminho 259" d="M225.4,315.069a30,30,0,1,0,10.126-41.2,30,30,0,0,0-10.126,41.2" fill="#facd4a"/>
              <path id="Caminho_260" data-name="Caminho 260" d="M324.452,125.338a30,30,0,1,0,10.126-41.2,30,30,0,0,0-10.126,41.2" fill="#facd4a"/>
              <path id="Caminho_261" data-name="Caminho 261" d="M133.318,319.381a21,21,0,1,0,7.088-28.84,21,21,0,0,0-7.088,28.84" fill="#facd4a"/>
              <path id="Caminho_262" data-name="Caminho 262" d="M147.482,172.864a21,21,0,1,0,7.088-28.84,21,21,0,0,0-7.088,28.84" fill="#facd4a"/>
              <path id="Caminho_263" data-name="Caminho 263" d="M271.538,231.021a21,21,0,1,0,7.088-28.84,21,21,0,0,0-7.088,28.84" fill="#facd4a"/>
              <path id="Caminho_264" data-name="Caminho 264" d="M100.282,249.369a13,13,0,1,0,4.388-17.853,13,13,0,0,0-4.388,17.853" fill="#facd4a"/>
              <path id="Caminho_265" data-name="Caminho 265" d="M404.793,231a13,13,0,1,0,4.388-17.854A13,13,0,0,0,404.793,231" fill="#facd4a"/>
              <path id="Caminho_266" data-name="Caminho 266" d="M195.264,242.13a13,13,0,1,0,4.388-17.854,13,13,0,0,0-4.388,17.854" fill="#facd4a"/>
              <path id="Caminho_267" data-name="Caminho 267" d="M299.138,56.5a13,13,0,1,0,4.388-17.854A13,13,0,0,0,299.138,56.5" fill="#facd4a"/>
              <path id="Caminho_268" data-name="Caminho 268" d="M371.129,175.4a13,13,0,1,0,4.387-17.853,13,13,0,0,0-4.387,17.853" fill="#facd4a"/>
              <line id="Linha_21" data-name="Linha 21" y1="9" x2="99" transform="translate(151.736 299.469)" fill="none" stroke="#facd4a" stroke-miterlimit="10" stroke-width="1"/>
              <line id="Linha_22" data-name="Linha 22" x1="138" y2="77" transform="translate(111.236 165.969)" fill="none" stroke="#facd4a" stroke-miterlimit="10" stroke-width="1"/>
              <line id="Linha_23" data-name="Linha 23" x1="86" y1="138" transform="translate(165.236 161.969)" fill="none" stroke="#facd4a" stroke-miterlimit="10" stroke-width="1"/>
              <line id="Linha_24" data-name="Linha 24" x2="40" y2="60" transform="translate(310.236 49.969)" fill="none" stroke="#facd4a" stroke-miterlimit="10" stroke-width="1"/>
              <line id="Linha_25" data-name="Linha 25" x1="133" y1="3" transform="translate(249.236 165.969)" fill="none" stroke="#facd4a" stroke-miterlimit="10" stroke-width="1"/>
              <line id="Linha_26" data-name="Linha 26" x1="34" y1="55" transform="translate(382.236 168.969)" fill="none" stroke="#facd4a" stroke-miterlimit="10" stroke-width="1"/>
              <line id="Linha_27" data-name="Linha 27" y1="81" x2="53" transform="translate(112.235 161.969)" fill="none" stroke="#facd4a" stroke-miterlimit="10" stroke-width="1"/>
            </g>
          </g>
        </g>
      </g>
    </g>
  </g>
</svg>
