<svg id="Componente_36_1" data-name="Componente 36 – 1" xmlns="http://www.w3.org/2000/svg" xmlns:xlink="http://www.w3.org/1999/xlink" width="209" height="209" viewBox="0 0 209 209">
  <defs>
    <clipPath id="clip-path">
      <rect id="Retângulo_124" data-name="Retângulo 124" width="114.718" height="104.328" fill="none"/>
    </clipPath>
  </defs>
  <rect id="Retângulo_148" data-name="Retângulo 148" width="209" height="209" rx="34" fill="#fff"/>
  <g id="Grupo_153" data-name="Grupo 153" transform="translate(47 52)" clip-path="url(#clip-path)">
    <path id="Caminho_301" data-name="Caminho 301" d="M24.036,13.182c0-1.884-.016-3.359.006-4.835a27.084,27.084,0,0,1,.142-3.309c.28-2.035,1.035-3.871,3.091-4.7,2.115-.857,3.833.073,5.35,1.518q11.4,10.864,22.8,21.731c.568.541,1.144,1.074,1.936,1.817,3.955-3.778,7.876-7.514,11.785-11.263C71.9,11.5,74.619,8.844,77.369,6.213c1.479-1.416,3-2.792,4.491-4.191,1.57-1.471,3.3-2.6,5.528-1.7s3.051,2.907,3.158,5.144c.116,2.42.026,4.85.026,7.227,1.47.311,2.322-.377,3.247-.727,5.862-2.217,10.05.339,10.587,6.633.206,2.42.034,4.872.034,7.386,2.139.7,4.143,1.062,5.935,2.38a9.537,9.537,0,0,1,4.288,7.962q.107,28.906.01,57.812A10.252,10.252,0,0,1,104.3,104.291c-4.817.071-9.635.018-14.453.018q-39.094,0-78.189-.005C4.084,104.3,0,100.175,0,92.553q0-27.6,0-55.206c0-5.772,2.969-9.617,8.547-10.841,1.4-.309,1.749-.921,1.7-2.237a47.205,47.205,0,0,1,.095-6.151c.544-5.673,4.741-8.242,10.1-6.282,1.029.376,2.052.768,3.592,1.346M60.463,95.614c6.589-6.23,13.087-12.56,19.8-18.653a16.905,16.905,0,0,0,5.633-13.246q.018-27.816,0-55.631c0-.879.314-1.874-.558-2.77C77.088,13.2,68.893,21.056,60.657,28.872c-.962.913-.822,1.963-.822,3.044q0,26.4.014,52.79c0,3.469.077,6.937.119,10.407l-.04.81.534-.309m-5.8.557a6.226,6.226,0,0,0,.218-.88q.014-31.962.055-63.923a4.124,4.124,0,0,0-1.6-3.2q-11.4-10.854-22.8-21.7c-.41-.39-.7-1.092-1.561-.9a5.925,5.925,0,0,0-.136.9c0,19.729-.064,39.458.084,59.185a14.242,14.242,0,0,0,4.87,10.673c4.109,3.745,8.058,7.665,12.082,11.5,2.842,2.712,5.695,5.413,8.784,8.349M68.378,94.7c2.648.174,4.3-1.6,6.356-2.231,6.259-1.905,12.181-4.717,18.359-6.826,4.759-1.623,6.717-5.172,6.745-9.763.114-18.632.073-37.267.03-55.9-.009-3.934-1.462-4.812-5.049-3.327a8.247,8.247,0,0,1-1.324.506c-2.261.5-3.011,1.748-2.988,4.174q.2,21.79.021,43.584a19.05,19.05,0,0,1-3.522,11.222c-1.846,2.583-4.245,4.577-6.406,6.807-3.877,4-8.024,7.745-12.223,11.755m-22.388.359c-.652-1.685-2.164-2.121-3.047-3.162A125.537,125.537,0,0,0,31.462,80.684,21.306,21.306,0,0,1,24.128,64.2q-.01-20.474-.005-40.949c0-4.84,0-4.84-4.435-6.676-3.252-1.347-4.47-.629-4.842,2.9a21.989,21.989,0,0,0-.017,2.366c.014,4.49.045,8.98.042,13.47-.007,12.071-.046,24.142-.028,36.214a51.2,51.2,0,0,0,.359,6.606c.4,3.061,1.865,5.628,4.823,6.813,8.539,3.42,17.138,6.688,25.966,10.114m-2.471,4.5c.009-.14.018-.279.028-.418-.566-.268-1.117-.576-1.7-.8-7.432-2.831-14.886-5.605-22.3-8.489-5.941-2.311-9.144-7.094-9.151-13.511-.018-14.2,0-28.405-.021-42.608,0-.894.337-1.885-.379-2.682-3.191.5-5.239,2.516-5.242,5.348q-.034,28.879.008,57.758a5.332,5.332,0,0,0,5.2,5.375c11.184.06,22.369.025,33.553.025m60.808-68.488v2.548q0,21.2-.013,42.389c-.015,7.1-3.3,11.651-9.976,14.149C88.361,92.391,82.412,94.7,76.459,97c-1.281.5-2.526,1.082-3.792,1.627.515,1.211,1.4.926,2.129.927,9.867.016,19.734.034,29.6-.006a5.356,5.356,0,0,0,5.542-5.513q.039-28.773.007-57.545c0-2.995-2.191-5.132-5.618-5.418" transform="translate(0 0)" fill="#454a4c"/>
    <path id="Caminho_302" data-name="Caminho 302" d="M86.651,102.305c-3.09-2.937-5.942-5.638-8.784-8.35-4.024-3.839-7.973-7.76-12.083-11.5a14.241,14.241,0,0,1-4.87-10.672c-.149-19.728-.082-39.457-.084-59.186a5.876,5.876,0,0,1,.137-.9c.857-.191,1.15.511,1.56.9q11.416,10.834,22.8,21.7a4.122,4.122,0,0,1,1.6,3.2q-.087,31.961-.055,63.923a6.223,6.223,0,0,1-.218.881" transform="translate(-31.992 -6.134)" fill="#59c9f4"/>
    <path id="Caminho_303" data-name="Caminho 303" d="M126.367,101.009c-.041-3.468-.115-6.937-.118-10.406q-.024-26.4-.014-52.791c0-1.081-.14-2.13.823-3.044,8.236-7.816,16.43-15.674,24.677-23.558.873.9.557,1.892.558,2.77q.031,27.816,0,55.632a16.905,16.905,0,0,1-5.633,13.246c-6.712,6.094-13.211,12.423-19.8,18.653l-.5-.5" transform="translate(-66.401 -5.897)" fill="#facd4a"/>
    <path id="Caminho_304" data-name="Caminho 304" d="M144.268,112.426c4.2-4.009,8.346-7.752,12.224-11.755,2.16-2.23,4.56-4.224,6.406-6.807a19.047,19.047,0,0,0,3.522-11.223q.159-21.791-.021-43.584c-.022-2.425.728-3.671,2.988-4.174a8.231,8.231,0,0,0,1.324-.506c3.586-1.485,5.04-.607,5.049,3.327.043,18.634.084,37.268-.03,55.9-.028,4.59-1.987,8.139-6.745,9.763-6.178,2.108-12.1,4.92-18.359,6.826-2.061.628-3.709,2.4-6.356,2.231" transform="translate(-75.89 -17.727)" fill="#43d7c2"/>
    <path id="Caminho_305" data-name="Caminho 305" d="M62.419,112.75c-8.828-3.426-17.427-6.7-25.966-10.114-2.958-1.184-4.42-3.752-4.823-6.813a51.288,51.288,0,0,1-.359-6.606c-.017-12.071.021-24.143.028-36.214,0-4.49-.028-8.98-.042-13.47a21.986,21.986,0,0,1,.016-2.366c.372-3.531,1.591-4.248,4.843-2.9,4.435,1.836,4.434,1.836,4.435,6.676q0,20.474,0,40.95a21.306,21.306,0,0,0,7.334,16.483,125.544,125.544,0,0,1,11.482,11.212c.883,1.041,2.395,1.477,3.046,3.162" transform="translate(-16.429 -17.691)" fill="#e56557"/>
    <path id="Caminho_306" data-name="Caminho 306" d="M48.778,134.019c-11.185,0-22.369.036-33.553-.025a5.332,5.332,0,0,1-5.2-5.375q-.046-28.879-.007-57.757c0-2.832,2.051-4.851,5.242-5.349.717.8.378,1.788.379,2.682.023,14.2,0,28.405.02,42.608.008,6.417,3.211,11.2,9.152,13.511,7.412,2.883,14.866,5.657,22.3,8.489.583.222,1.134.53,1.7.8-.009.139-.018.279-.027.418" transform="translate(-5.259 -34.462)" fill="#eff1f5"/>
    <path id="Caminho_307" data-name="Caminho 307" d="M184.977,65.551c3.427.286,5.615,2.423,5.618,5.418q.03,28.772-.007,57.545a5.356,5.356,0,0,1-5.542,5.513c-9.867.04-19.734.022-29.6.006-.727,0-1.614.284-2.129-.927,1.266-.546,2.511-1.132,3.792-1.627,5.953-2.3,11.9-4.606,17.879-6.843,6.671-2.5,9.961-7.05,9.976-14.149q.044-21.195.013-42.389V65.551" transform="translate(-80.651 -34.482)" fill="#eff1f5"/>
    <path id="Caminho_308" data-name="Caminho 308" d="M126.975,201.177l-.534.309q.02-.4.039-.81l.5.5" transform="translate(-66.513 -105.563)" fill="#f0c7bf"/>
  </g>
</svg>
