<svg xmlns="http://www.w3.org/2000/svg" xmlns:xlink="http://www.w3.org/1999/xlink" width="152.591" height="138.771" viewBox="0 0 152.591 138.771">
  <defs>
    <clipPath id="clip-path">
      <rect id="Retângulo_124" data-name="Retângulo 124" width="152.591" height="138.771" fill="none"/>
    </clipPath>
  </defs>
  <g id="Grupo_153" data-name="Grupo 153" clip-path="url(#clip-path)">
    <path id="Caminho_301" data-name="Caminho 301" d="M31.971,17.534c0-2.505-.021-4.469.008-6.431a36.025,36.025,0,0,1,.189-4.4c.373-2.706,1.376-5.149,4.112-6.257,2.813-1.14,5.1.1,7.116,2.019q15.168,14.451,30.333,28.9c.756.72,1.522,1.429,2.575,2.417,5.26-5.026,10.476-9.995,15.676-14.981,3.653-3.5,7.275-7.041,10.932-10.54,1.968-1.883,3.987-3.713,5.974-5.575,2.088-1.956,4.4-3.464,7.353-2.258,2.975,1.212,4.058,3.867,4.2,6.843.154,3.219.035,6.451.035,9.613,1.955.414,3.089-.5,4.319-.967,7.8-2.949,13.368.451,14.082,8.823.274,3.219.045,6.48.045,9.825,2.845.925,5.511,1.413,7.895,3.166,3.721,2.737,5.688,6.208,5.7,10.59q.143,38.448.014,76.9c-.024,7.548-6.108,13.387-13.8,13.5-6.407.094-12.816.023-19.225.023q-52,0-104-.007c-10.071,0-15.5-5.49-15.5-15.629Q0,86.394,0,49.677C0,42,3.952,36.886,11.371,35.257c1.868-.41,2.327-1.226,2.266-2.976a62.789,62.789,0,0,1,.126-8.181c.723-7.546,6.306-10.963,13.43-8.356,1.369.5,2.73,1.022,4.778,1.79M80.424,127.181c8.764-8.286,17.408-16.706,26.335-24.811,5.311-4.822,7.488-10.7,7.492-17.619q.025-37,0-74c0-1.169.418-2.492-.743-3.685C102.538,17.554,91.638,28.008,80.683,38.4c-1.28,1.214-1.094,2.611-1.094,4.049q0,35.109.018,70.219c0,4.614.1,9.228.159,13.843l-.053,1.077.711-.41m-7.719.741a8.281,8.281,0,0,0,.29-1.171q.019-42.514.074-85.027a5.485,5.485,0,0,0-2.126-4.262Q55.781,23.025,40.617,8.592c-.546-.518-.936-1.452-2.076-1.2a7.881,7.881,0,0,0-.182,1.2c0,26.242-.086,52.485.112,78.725a18.944,18.944,0,0,0,6.478,14.2c5.466,4.981,10.719,10.2,16.071,15.3,3.781,3.607,7.575,7.2,11.685,11.106m18.248-1.959c3.522.232,5.713-2.132,8.455-2.967,8.325-2.534,16.2-6.274,24.421-9.079,6.33-2.159,8.935-6.88,8.972-12.986.152-24.784.1-49.571.04-74.356-.012-5.233-1.945-6.4-6.715-4.426a10.969,10.969,0,0,1-1.761.673c-3.008.668-4,2.326-3.975,5.552q.266,28.984.028,57.973a25.339,25.339,0,0,1-4.684,14.928c-2.456,3.436-5.647,6.088-8.521,9.054-5.158,5.325-10.673,10.3-16.259,15.635m-29.779.478c-.867-2.242-2.878-2.822-4.052-4.206C52.5,116.785,47.1,112.11,41.849,107.321A28.34,28.34,0,0,1,32.094,85.4q-.013-27.234-.007-54.469c0-6.438,0-6.438-5.9-8.88-4.326-1.791-5.946-.837-6.441,3.858a29.248,29.248,0,0,0-.022,3.147c.018,5.973.059,11.945.055,17.918-.009,16.057-.061,32.113-.037,48.169a68.1,68.1,0,0,0,.477,8.786c.537,4.071,2.481,7.486,6.415,9.062,11.358,4.549,22.8,8.9,34.539,13.454m-3.287,5.984c.013-.186.025-.371.037-.556-.753-.357-1.486-.766-2.262-1.062-9.885-3.766-19.8-7.456-29.659-11.291-7.9-3.073-12.162-9.436-12.172-17.972-.023-18.891,0-37.783-.028-56.674,0-1.19.449-2.508-.5-3.567-4.244.661-6.969,3.347-6.973,7.114q-.045,38.414.01,76.826a7.092,7.092,0,0,0,6.921,7.15c14.876.08,29.753.033,44.63.033m80.883-91.1v3.389q0,28.193-.017,56.384c-.02,9.443-4.4,15.5-13.27,18.82-7.949,2.976-15.863,6.045-23.781,9.1-1.7.659-3.36,1.439-5.044,2.164.685,1.61,1.864,1.231,2.831,1.232,13.124.021,26.25.045,39.374-.008a7.125,7.125,0,0,0,7.372-7.333q.052-38.272.009-76.543c0-3.984-2.915-6.826-7.473-7.207" transform="translate(0 0)" fill="#21253c"/>
    <path id="Caminho_302" data-name="Caminho 302" d="M95.18,132.231c-4.11-3.906-7.9-7.5-11.685-11.106-5.352-5.106-10.605-10.322-16.072-15.3a18.943,18.943,0,0,1-6.478-14.2c-.2-26.241-.108-52.483-.112-78.725a7.816,7.816,0,0,1,.182-1.2c1.14-.253,1.529.68,2.075,1.2q15.185,14.411,30.326,28.87a5.483,5.483,0,0,1,2.126,4.262q-.116,42.513-.073,85.026a8.277,8.277,0,0,1-.29,1.171" transform="translate(-22.476 -4.309)" fill="#59c9f4"/>
    <path id="Caminho_303" data-name="Caminho 303" d="M126.413,130.656c-.055-4.614-.153-9.228-.156-13.841q-.032-35.11-.019-70.22c0-1.437-.186-2.834,1.094-4.049,10.954-10.4,21.855-20.849,32.824-31.336,1.161,1.193.741,2.516.743,3.685q.041,37,0,74c-.005,6.923-2.181,12.8-7.492,17.619-8.928,8.106-17.572,16.524-26.335,24.812l-.66-.668" transform="translate(-46.649 -4.143)" fill="#facd4a"/>
    <path id="Caminho_304" data-name="Caminho 304" d="M144.268,138.418c5.586-5.333,11.1-10.311,16.26-15.635,2.874-2.967,6.065-5.619,8.52-9.054A25.335,25.335,0,0,0,173.732,98.8q.211-28.985-.028-57.973c-.03-3.226.968-4.883,3.975-5.552a10.948,10.948,0,0,0,1.761-.673c4.77-1.975,6.7-.807,6.715,4.426.057,24.786.112,49.572-.04,74.356-.037,6.106-2.643,10.827-8.972,12.986-8.218,2.8-16.1,6.545-24.421,9.079-2.742.835-4.933,3.2-8.455,2.967" transform="translate(-53.316 -12.454)" fill="#43d7c2"/>
    <path id="Caminho_305" data-name="Caminho 305" d="M72.715,138.87c-11.743-4.557-23.18-8.906-34.538-13.454-3.935-1.575-5.879-4.991-6.415-9.062a68.221,68.221,0,0,1-.477-8.786c-.023-16.057.028-32.113.038-48.17,0-5.973-.037-11.945-.055-17.917a29.246,29.246,0,0,1,.021-3.147c.495-4.7,2.116-5.65,6.442-3.859,5.9,2.442,5.9,2.442,5.9,8.88q0,27.234.006,54.469A28.34,28.34,0,0,0,53.39,119.75c5.248,4.789,10.651,9.464,15.273,14.914,1.174,1.384,3.186,1.964,4.052,4.206" transform="translate(-11.542 -12.429)" fill="#e56557"/>
    <path id="Caminho_306" data-name="Caminho 306" d="M61.581,156.636c-14.877,0-29.754.048-44.631-.033a7.092,7.092,0,0,1-6.921-7.15q-.061-38.413-.009-76.826c0-3.767,2.729-6.453,6.973-7.114.953,1.059.5,2.378.5,3.568.031,18.891,0,37.783.027,56.674.011,8.535,4.271,14.9,12.173,17.972,9.859,3.835,19.774,7.525,29.659,11.292.776.3,1.509.7,2.261,1.061-.012.185-.025.371-.037.556" transform="translate(-3.695 -24.211)" fill="#eff1f5"/>
    <path id="Caminho_307" data-name="Caminho 307" d="M195.43,65.551c4.559.381,7.469,3.223,7.473,7.207q.04,38.271-.009,76.543a7.125,7.125,0,0,1-7.372,7.333c-13.124.053-26.25.03-39.374.008-.967,0-2.147.378-2.831-1.232,1.684-.726,3.34-1.505,5.044-2.164,7.918-3.057,15.832-6.127,23.781-9.1,8.874-3.322,13.25-9.377,13.27-18.82q.059-28.192.017-56.384V65.551" transform="translate(-56.66 -24.225)" fill="#eff1f5"/>
    <path id="Caminho_308" data-name="Caminho 308" d="M127.152,201.343l-.71.41q.026-.538.052-1.078l.659.668" transform="translate(-46.728 -74.162)" fill="#f0c7bf"/>
  </g>
</svg>
