<svg id="Grupo_868" data-name="Grupo 868" xmlns="http://www.w3.org/2000/svg" xmlns:xlink="http://www.w3.org/1999/xlink" width="48.82" height="30.146" viewBox="0 0 48.82 30.146">
  <defs>
    <clipPath id="clip-path">
      <path id="Caminho_1293" data-name="Caminho 1293" d="M20,28.432a1.166,1.166,0,0,1-.1-1.7q.845-1.03,1.729-2.028a1.138,1.138,0,0,1,1.337-.321,1.153,1.153,0,0,1,.719,1.081,1.22,1.22,0,0,1-.3.784c-.566.664-1.122,1.337-1.7,1.991a1.278,1.278,0,0,1-.952.47,1.141,1.141,0,0,1-.738-.28m-2.128-2.178a1.111,1.111,0,0,1-1.017-.587,1.024,1.024,0,0,1,.044-1.209c.623-.78,1.268-1.546,1.944-2.281a1.1,1.1,0,0,1,1.551-.045,1.12,1.12,0,0,1,.2,1.541c-.609.772-1.261,1.509-1.907,2.251a1,1,0,0,1-.79.331h-.023m-3.345-2.527a1.176,1.176,0,0,1-.707-1.091,1.134,1.134,0,0,1,.3-.779c.565-.665,1.123-1.337,1.7-1.991a1.171,1.171,0,1,1,1.777,1.52q-.847,1.029-1.732,2.027a1.146,1.146,0,0,1-.866.415,1.221,1.221,0,0,1-.475-.1m-2.291-2.352a1.194,1.194,0,0,1-1.154-.607,1.053,1.053,0,0,1,.06-1.213c.627-.778,1.271-1.544,1.948-2.278a1.117,1.117,0,0,1,1.517-.054,1.091,1.091,0,0,1,.256,1.493c-.628.816-1.315,1.587-1.995,2.361a.894.894,0,0,1-.615.3h-.018M6.978,15.239,11.135,4.706c.2.078.365.127.516.2a7.158,7.158,0,0,0,3.222.661,24.3,24.3,0,0,1,4.772.369c.04.2-.111.238-.2.314a34.76,34.76,0,0,1-4.015,3.129,1.9,1.9,0,0,0-.081,3.384,4.224,4.224,0,0,0,3.985.543,10.626,10.626,0,0,0,3.6-2.165c.144-.121.29-.241.418-.348a.743.743,0,0,1,.408.281,9.693,9.693,0,0,0,7.965,2.859.875.875,0,0,1,.656.187c1.758,1.306,3.525,2.6,5.284,3.9a1.476,1.476,0,0,1,.447,2.084,1.425,1.425,0,0,1-2.139.209c-.979-.731-1.946-1.479-2.916-2.223a.85.85,0,0,0-.738-.245.718.718,0,0,0-.25,1.293c.688.537,1.353,1.111,2.082,1.587a1.407,1.407,0,0,1,.358,2,1.443,1.443,0,0,1-2.037.257c-.7-.5-1.367-1.034-2.049-1.553-.2-.154-.4-.317-.606-.462a.7.7,0,0,0-1.046.123.708.708,0,0,0,.18,1.008c.6.475,1.206.931,1.809,1.4a1.387,1.387,0,0,1,.372,1.957,1.417,1.417,0,0,1-1.989.322c-.793-.554-1.55-1.159-2.32-1.746a.841.841,0,0,0-.695-.234.7.7,0,0,0-.566.518.659.659,0,0,0,.237.726c.368.3.748.59,1.124.882a1.3,1.3,0,0,1,.361,1.9,1.416,1.416,0,0,1-1.948.353c-.36-.226-.694-.5-1.058-.759a2.613,2.613,0,0,0,.562-3.085,2.525,2.525,0,0,0-2.594-1.459,2.81,2.81,0,0,0-.918-1.817,2.643,2.643,0,0,0-1.967-.633A2.669,2.669,0,0,0,16.5,17.966c-.05-.216-.084-.418-.145-.613a2.6,2.6,0,0,0-4.377-1.007c-.4.426-.77.884-1.158,1.333L6.978,15.239M1.424,13.865,6.333,1.421l3.943,1.556L5.367,15.421,1.424,13.865M42.481,0a1.67,1.67,0,0,0-.587.115q-1.928.74-3.842,1.519a1.391,1.391,0,0,0-.928,1.457c.019.268-.091.321-.284.389-.582.206-1.159.425-1.74.636a4.005,4.005,0,0,1-2.105.2q-1.054-.187-2.118-.313a.643.643,0,0,0-.752.568.685.685,0,0,0,.543.823c.183.05.377.056.561.1a8,8,0,0,0,5.614-.487,1.906,1.906,0,0,1,.851-.264l4.047,10.263-3.067,1.968c-1.941-1.433-3.859-2.843-5.769-4.263a1.172,1.172,0,0,0-.927-.242A8.221,8.221,0,0,1,24.77,10.05a1.688,1.688,0,0,0-2.66-.084,9.159,9.159,0,0,1-3.264,1.993,2.8,2.8,0,0,1-2.78-.454c-.364-.3-.356-.562.03-.84s.76-.518,1.134-.786a43.8,43.8,0,0,0,5.443-4.693,2.243,2.243,0,0,1,2.065-.715q1.22.205,2.444.386c.586.088.957-.127,1.026-.575s-.237-.757-.815-.845c-.517-.079-1.033-.173-1.55-.249a6.056,6.056,0,0,0-2.36-.089,4.659,4.659,0,0,0-2.228,1.474c-.136.141-.245.3-.515.212a19.234,19.234,0,0,0-5.94-.644,6.927,6.927,0,0,1-2.881-.673c-.153-.071-.245-.114-.239-.333a1.451,1.451,0,0,0-1.057-1.564Q8.882.877,7.133.2a1.515,1.515,0,0,0-2.255,1c-1.12,2.843-2.23,5.69-3.363,8.527C1.017,10.969.589,12.242,0,13.449v.763a1.93,1.93,0,0,0,1.029,1.047c1.214.46,2.418.944,3.624,1.426a1.518,1.518,0,0,0,1.457-.064.275.275,0,0,1,.34-.022q1.72,1.1,3.443,2.185a2.649,2.649,0,0,0,2.467,4.031,2.7,2.7,0,0,0,2.9,2.466,2.726,2.726,0,0,0,.927,1.8,2.7,2.7,0,0,0,1.934.613,2.093,2.093,0,0,1,.063.214,2.482,2.482,0,0,0,1.861,2.125,2.823,2.823,0,0,0,.763.114h.024a2.577,2.577,0,0,0,1.953-.974c.2-.222.388-.447.585-.674,1,.772,1.931,1.578,3.287,1.293a2.89,2.89,0,0,0,2.354-2.476A2.921,2.921,0,0,0,31.4,27.1a2.876,2.876,0,0,0,1.461-2.422,2.936,2.936,0,0,0,2.284-.558,2.991,2.991,0,0,0,1.118-2.065A2.889,2.889,0,0,0,39.585,18.1l2.725-1.751c.669.484,1.071.617,1.609.413,1.362-.515,2.72-1.044,4.062-1.609a1.367,1.367,0,0,0,.839-1.246V13.9a1.3,1.3,0,0,0-.082-.449c-.582-1.557-1.2-3.1-1.822-4.641a.69.69,0,0,0-.946-.385.729.729,0,0,0-.366.925c.033.105.085.2.125.308l1.656,4.216-3.941,1.552L38.535,2.979l3.942-1.556L43.413,3.8c.308.781.609,1.564.925,2.341a.719.719,0,1,0,1.329-.524C45.058,4.05,44.451,2.485,43.82.93A1.414,1.414,0,0,0,42.5,0Z" fill="#fff"/>
    </clipPath>
  </defs>
  <g id="Grupo_867" data-name="Grupo 867" clip-path="url(#clip-path)">
    <rect id="Retângulo_766" data-name="Retângulo 766" width="48.82" height="30.381" transform="translate(0 -0.235)" fill="#fff"/>
  </g>
</svg>
