<svg xmlns="http://www.w3.org/2000/svg" xmlns:xlink="http://www.w3.org/1999/xlink" width="162" height="126" viewBox="0 0 162 126">
  <defs>
    <clipPath id="clip-path">
      <rect id="Retângulo_140" data-name="Retângulo 140" width="162" height="126" transform="translate(0.474 0.182)" fill="none"/>
    </clipPath>
  </defs>
  <g id="Grupo_720" data-name="Grupo 720" transform="translate(-0.474 -0.182)">
    <path id="Caminho_466" data-name="Caminho 466" d="M266.845,36.032H228.13L231.092,27h32.791Z" transform="translate(-167.258 -19.735)" fill="#e56557"/>
    <g id="Grupo_189" data-name="Grupo 189" clip-path="url(#clip-path)">
      <path id="Caminho_467" data-name="Caminho 467" d="M269.5,316h0c0,.045,0,.088,0,.133Z" transform="translate(-197.637 -231.965)" fill="#59c9f4"/>
      <path id="Caminho_468" data-name="Caminho 468" d="M338.493,316v.133c0-.045,0-.088,0-.133Z" transform="translate(-248.301 -231.965)" fill="#59c9f4"/>
      <path id="Caminho_469" data-name="Caminho 469" d="M187.289,316v32.063a3.005,3.005,0,0,1-3,3H58a3.005,3.005,0,0,1-3-3V316h1.2c.372.207.749.4,1.129.59.09.045.181.09.274.133.173.085.348.167.523.247q.422.2.853.375c.149.066.3.127.452.189.234.1.47.186.707.274.082.032.167.064.255.093.191.072.385.141.579.2l.09.032c.21.069.42.138.63.2a.069.069,0,0,1,.021.008c.226.069.452.135.68.2.05.013.1.027.149.042.2.056.409.112.614.165.011,0,.019,0,.027.005.239.061.475.12.717.175a.038.038,0,0,1,.019.005c.21.048.425.093.638.138.088.019.178.037.266.053q.231.048.462.088c.066.013.13.024.2.035.228.043.46.08.688.114s.441.064.661.093c.332.043.664.08,1,.112.178.019.353.032.531.045.064.008.13.011.2.016.231.019.462.032.7.043s.465.021.7.027c.056,0,.112.005.167,0,.231.008.462.011.7.011h34.393c.005.034.013.066.021.1.029.133.061.263.1.393s.069.26.106.391a16.263,16.263,0,0,0,1.865,4.186c.058.1.12.191.183.284.125.194.255.385.39.571.12.167.242.329.367.491.08.1.162.2.244.305s.143.175.218.26.133.157.2.234a.581.581,0,0,1,.053.061c.066.072.13.143.2.213a16.373,16.373,0,0,0,1.209,1.182c.077.069.154.135.234.2.1.088.21.175.316.263.077.061.154.122.234.183s.178.138.271.207a16.791,16.791,0,0,0,1.618,1.063c.082.048.165.093.25.138.244.135.494.266.746.388.1.05.2.1.308.146s.194.09.292.13l.228.1.218.088a15.709,15.709,0,0,0,2.035.664c.117.032.236.061.356.088s.228.053.343.077c.284.058.571.109.858.154q.2.032.406.056c.125.019.25.032.377.045.162.016.324.032.489.043.106.008.215.016.321.021.09.005.181.008.274.011s.167.008.252.008c.122,0,.242.005.364.005s.242,0,.364-.005c.085,0,.167,0,.252-.008s.183-.005.274-.011c.106-.005.215-.013.321-.021.165-.011.327-.027.489-.043.128-.013.252-.027.377-.045s.274-.035.406-.056c.287-.045.574-.1.858-.154.114-.024.228-.05.343-.077s.239-.056.356-.088a15.709,15.709,0,0,0,2.035-.664l.218-.088.228-.1c.1-.04.2-.085.292-.13s.207-.1.308-.146c.252-.122.5-.252.746-.388.085-.045.167-.09.25-.138a16.791,16.791,0,0,0,1.618-1.063c.093-.069.181-.138.271-.207s.157-.122.234-.183c.106-.088.213-.175.316-.263.08-.066.157-.133.234-.2a16.37,16.37,0,0,0,1.209-1.182c.066-.069.13-.141.2-.213a.582.582,0,0,1,.053-.061c.066-.077.135-.154.2-.234s.146-.173.218-.26.165-.2.244-.305c.125-.162.247-.324.367-.491.135-.186.266-.377.39-.571.064-.093.125-.189.183-.284a16.264,16.264,0,0,0,1.865-4.186c.037-.13.072-.26.106-.391s.066-.26.1-.393c.008-.032.016-.064.021-.1h34.393c.234,0,.465,0,.7-.011.056,0,.112,0,.167,0,.236-.005.47-.013.7-.027s.465-.024.7-.043c.066-.005.133-.008.2-.016.178-.013.353-.027.531-.045.335-.032.667-.069,1-.112.22-.029.441-.058.661-.093s.46-.072.688-.114c.066-.011.13-.021.2-.035q.231-.04.462-.088c.088-.016.178-.034.266-.053.213-.045.428-.09.638-.138a.038.038,0,0,1,.019-.005c.242-.056.478-.114.717-.175.008,0,.016,0,.027-.005.2-.053.409-.109.614-.165.048-.016.1-.029.149-.042.228-.066.454-.133.68-.2a.069.069,0,0,1,.021-.008c.21-.066.42-.135.63-.2l.09-.032c.194-.064.388-.133.579-.2.088-.029.173-.061.255-.093.236-.088.473-.178.707-.274.151-.061.3-.122.452-.189q.43-.179.853-.375c.175-.08.351-.162.523-.247.093-.042.183-.088.274-.133.38-.189.757-.383,1.129-.59Z" transform="translate(-40.117 -231.965)" fill="#59c9f4"/>
      <path id="Caminho_470" data-name="Caminho 470" d="M174.634,290.51v38.834a10.185,10.185,0,0,1-10.174,10.174H38.174A10.185,10.185,0,0,1,28,329.344V290.51q.482.554.993,1.089a30.4,30.4,0,0,0,2.593,2.417,29.991,29.991,0,0,0,3.586,2.571v32.756a3.005,3.005,0,0,0,3,3H164.46a3.005,3.005,0,0,0,3-3V296.588a29.992,29.992,0,0,0,3.586-2.571,30.4,30.4,0,0,0,2.593-2.417q.51-.534.994-1.089" transform="translate(-20.29 -213.247)" fill="#21253c"/>
      <path id="Caminho_471" data-name="Caminho 471" d="M549.7,313.39v.693h-1.2c.077-.043.157-.085.234-.13.324-.181.643-.369.962-.563" transform="translate(-402.524 -230.049)" fill="#facd4a"/>
      <path id="Caminho_472" data-name="Caminho 472" d="M56.2,314.083H55v-.693c.319.194.638.383.962.563.077.045.157.088.234.13" transform="translate(-40.117 -230.049)" fill="#facd4a"/>
      <path id="Caminho_473" data-name="Caminho 473" d="M174.165,92.112v29.749a23.254,23.254,0,0,1-23.252,23.252H116.521c-.005-.035-.013-.066-.021-.1-.029-.133-.061-.263-.1-.393s-.069-.26-.106-.39a16.263,16.263,0,0,0-1.865-4.186c-.058-.1-.12-.191-.183-.284-.125-.194-.255-.383-.39-.571-.12-.167-.242-.329-.367-.491-.08-.1-.162-.2-.244-.305s-.143-.175-.218-.26-.133-.157-.2-.234c-.019-.021-.037-.04-.053-.061-.066-.072-.13-.143-.2-.213q-.574-.622-1.209-1.182c-.077-.069-.154-.135-.234-.2-.1-.088-.21-.175-.316-.263-.077-.061-.154-.122-.234-.183s-.178-.138-.271-.207a16.8,16.8,0,0,0-1.618-1.063c-.082-.048-.165-.093-.25-.138-.244-.135-.494-.266-.746-.388-.1-.05-.2-.1-.308-.146s-.194-.09-.292-.13c-.077-.035-.154-.066-.228-.1s-.146-.061-.218-.09a15.571,15.571,0,0,0-2.035-.664c-.117-.032-.236-.061-.356-.088s-.228-.053-.343-.077c-.284-.058-.568-.109-.858-.154q-.2-.032-.406-.056c-.125-.019-.25-.032-.377-.045-.162-.016-.327-.032-.489-.042-.106-.008-.215-.016-.321-.021-.09-.005-.183-.008-.274-.011s-.167-.008-.252-.008c-.122,0-.242-.005-.364-.005s-.242,0-.364.005c-.085,0-.167,0-.252.008s-.183.005-.274.011c-.106.005-.215.013-.321.021-.162.011-.327.027-.489.042-.128.013-.252.027-.377.045s-.274.035-.406.056c-.29.045-.574.1-.858.154-.114.024-.228.051-.343.077s-.239.056-.356.088a15.57,15.57,0,0,0-2.035.664c-.072.029-.146.058-.218.09s-.151.064-.228.1c-.1.04-.2.085-.292.13s-.207.1-.308.146c-.252.122-.5.252-.746.388-.085.045-.167.09-.25.138a16.8,16.8,0,0,0-1.618,1.063c-.093.069-.181.138-.271.207s-.157.122-.234.183c-.106.088-.213.175-.316.263-.08.066-.157.133-.234.2q-.634.562-1.209,1.182c-.066.069-.13.141-.2.213-.016.021-.035.04-.053.061-.066.077-.135.154-.2.234s-.146.173-.218.26-.165.2-.244.305c-.125.162-.247.324-.367.491-.135.189-.266.377-.391.571-.064.093-.125.189-.183.284a16.263,16.263,0,0,0-1.865,4.186c-.037.13-.072.26-.106.39s-.066.26-.1.393c-.008.032-.016.064-.021.1H50.252A23.254,23.254,0,0,1,27,121.861V92.112A4.115,4.115,0,0,1,31.112,88H170.053a4.115,4.115,0,0,1,4.112,4.112" transform="translate(-19.555 -64.531)" fill="#facd4a"/>
      <path id="Caminho_474" data-name="Caminho 474" d="M243.99,302.728h0c.005-.034.013-.066.021-.1l-.024.1m25.1,3.453c0,.045,0,.088,0,.133v-.133Zm-18.327,0v.133c0-.045,0-.088,0-.133Zm0,0v.133c0-.045,0-.088,0-.133Zm18.327,0c0,.045,0,.088,0,.133v-.133Zm6.755-3.552c.008.032.016.064.021.1h0l-.024-.1m0,0c.008.032.016.064.021.1h0l-.024-.1m-6.755,3.552c0,.045,0,.088,0,.133v-.133Zm-18.327,0v.133c0-.045,0-.088,0-.133Zm-6.776-3.453h0c.005-.034.013-.066.021-.1l-.024.1m25.1,3.453c0,.045,0,.088,0,.133v-.133Zm-18.327,0v.133c0-.045,0-.088,0-.133Z" transform="translate(-178.904 -222.147)" fill="#3b3e43"/>
      <path id="Caminho_475" data-name="Caminho 475" d="M287.827,316c0,.045,0,.088,0,.133V316Zm-18.327.133c0-.045,0-.088,0-.133h0Z" transform="translate(-197.637 -231.965)" fill="#3b3e43"/>
      <path id="Caminho_476" data-name="Caminho 476" d="M275.87,330c-.005.035-.013.066-.021.1l.024-.1Zm-31.877,0h0l.024.1c-.008-.032-.016-.064-.021-.1m31.877,0c-.005.035-.013.066-.021.1l.024-.1Zm-31.877,0h0l.024.1c-.008-.032-.016-.064-.021-.1m31.877,0c-.005.035-.013.066-.021.1l.024-.1Z" transform="translate(-178.904 -242.246)" fill="#3b3e43"/>
      <path id="Caminho_477" data-name="Caminho 477" d="M150.225,16.2H106.862L101.549,0H58.367L53.054,16.2H11.284A11.3,11.3,0,0,0,0,27.489V57.238A30.269,30.269,0,0,0,7.438,77.171q.482.554.993,1.089a30.4,30.4,0,0,0,2.593,2.417,29.988,29.988,0,0,0,3.586,2.571c.319.194.638.383.962.563.077.045.157.088.234.13h0c.372.207.749.4,1.129.59.09.045.181.09.274.133.173.085.348.167.523.247q.422.2.853.375c.149.066.3.128.452.189.234.1.47.186.707.274.082.032.167.064.255.093.191.072.385.141.579.2l.09.032c.21.069.42.138.63.2a.07.07,0,0,1,.021.008c.226.069.452.135.68.2.05.013.1.027.149.043.2.056.409.112.614.165.011,0,.019,0,.027.005.239.061.475.12.717.175a.038.038,0,0,1,.019.005c.21.048.425.093.638.138.088.019.178.037.266.053q.231.048.462.088c.066.013.13.024.2.035.228.043.46.08.688.114s.441.064.661.093c.332.043.664.08,1,.112.178.019.353.032.531.045.064.008.13.011.2.016.231.019.462.032.7.043s.465.021.7.027c.056,0,.112.005.167,0,.231.008.462.011.7.011H64.816a16.27,16.27,0,0,1-.4-3.586c0-.045,0-.088,0-.133a16.093,16.093,0,0,1,.4-3.453H30.424A23.254,23.254,0,0,1,7.172,57.238V27.489a4.115,4.115,0,0,1,4.112-4.112H150.225a4.115,4.115,0,0,1,4.112,4.112V57.238a23.254,23.254,0,0,1-23.252,23.252H96.693a16.092,16.092,0,0,1,.4,3.453c0,.045,0,.088,0,.133a16.269,16.269,0,0,1-.4,3.586h34.392c.234,0,.465,0,.7-.011.056,0,.112,0,.167,0,.236-.005.47-.013.7-.027s.465-.024.7-.043c.066-.005.133-.008.2-.016.178-.013.353-.027.531-.045.335-.032.667-.069,1-.112.22-.029.441-.058.661-.093s.46-.072.688-.114c.066-.011.13-.021.2-.035q.231-.04.462-.088c.088-.016.178-.035.266-.053.213-.045.428-.09.638-.138A.038.038,0,0,1,138,86.88c.242-.056.478-.114.717-.175.008,0,.016,0,.027-.005.2-.053.409-.109.614-.165.048-.016.1-.029.149-.043.228-.066.454-.133.68-.2a.07.07,0,0,1,.021-.008c.21-.066.42-.135.63-.2l.09-.032c.194-.064.388-.133.579-.2.088-.029.173-.061.255-.093.236-.088.473-.178.707-.274.151-.061.3-.122.452-.189q.43-.179.853-.375c.175-.08.351-.162.523-.247.093-.043.183-.088.274-.133.38-.189.757-.383,1.129-.59h0c.077-.043.157-.085.234-.13.324-.181.643-.369.962-.563a29.988,29.988,0,0,0,3.586-2.571,30.405,30.405,0,0,0,2.593-2.417q.51-.534.993-1.089a30.269,30.269,0,0,0,7.438-19.934V27.489A11.3,11.3,0,0,0,150.225,16.2M60.6,16.2l2.962-9.032H96.353L99.315,16.2Z" transform="translate(0.273 0.092)" fill="#21253c"/>
      <path id="Caminho_478" data-name="Caminho 478" d="M275.171,271.2a16.089,16.089,0,0,0-.4-3.453c-.005-.035-.013-.066-.021-.1-.029-.133-.061-.263-.1-.393s-.069-.26-.106-.391a16.265,16.265,0,0,0-1.865-4.186c-.059-.1-.12-.191-.183-.284-.125-.194-.255-.383-.391-.571-.12-.167-.242-.329-.367-.491-.08-.1-.162-.2-.244-.305s-.143-.175-.218-.26-.133-.157-.2-.234c-.019-.021-.037-.04-.053-.061-.066-.072-.13-.143-.2-.212q-.574-.622-1.209-1.182c-.077-.069-.154-.135-.234-.2-.1-.088-.21-.175-.316-.263-.077-.061-.154-.122-.234-.183s-.178-.138-.271-.207a16.8,16.8,0,0,0-1.618-1.063c-.082-.048-.165-.093-.25-.138-.244-.135-.494-.266-.746-.388-.1-.05-.2-.1-.308-.146s-.194-.09-.292-.13c-.077-.034-.154-.066-.228-.1s-.146-.061-.218-.09a15.552,15.552,0,0,0-2.035-.664c-.117-.032-.236-.061-.356-.088s-.228-.053-.343-.077c-.284-.058-.568-.109-.858-.154q-.2-.032-.406-.056c-.125-.019-.25-.032-.377-.045-.162-.016-.327-.032-.489-.043-.106-.008-.215-.016-.321-.021-.09-.005-.183-.008-.274-.011s-.167-.008-.252-.008c-.122,0-.242-.005-.364-.005s-.242,0-.364.005c-.085,0-.167,0-.252.008s-.183.005-.274.011c-.106.005-.215.013-.321.021-.162.011-.327.027-.489.043-.127.013-.252.027-.377.045s-.274.035-.406.056c-.29.045-.574.1-.858.154-.114.024-.228.05-.343.077s-.239.056-.356.088a15.552,15.552,0,0,0-2.035.664c-.072.029-.146.058-.218.09s-.151.064-.228.1c-.1.04-.2.085-.292.13s-.207.1-.308.146c-.252.122-.5.252-.746.388-.085.045-.167.09-.25.138a16.8,16.8,0,0,0-1.618,1.063c-.093.069-.181.138-.271.207s-.157.122-.234.183c-.106.088-.212.175-.316.263-.08.066-.157.133-.234.2q-.634.562-1.209,1.182c-.066.069-.13.141-.2.212-.016.021-.035.04-.053.061-.066.077-.135.154-.2.234s-.146.173-.218.26-.165.2-.244.305c-.125.162-.247.324-.367.491-.135.189-.266.377-.39.571-.064.093-.125.189-.183.284a16.264,16.264,0,0,0-1.865,4.186c-.037.13-.072.26-.106.391s-.066.26-.1.393c-.008.032-.016.064-.021.1a16.093,16.093,0,0,0-.4,3.453c0,.045,0,.088,0,.133a16.27,16.27,0,0,0,.4,3.586c.005.035.013.066.021.1.029.133.061.263.1.393s.069.26.106.391a16.264,16.264,0,0,0,1.865,4.187c.058.1.12.191.183.284.125.194.255.385.39.571.12.167.242.329.367.491.08.1.162.2.244.305s.143.175.218.26.133.157.2.234a.591.591,0,0,1,.053.061c.066.072.13.143.2.213a16.364,16.364,0,0,0,1.209,1.182c.077.069.154.135.234.2.1.088.21.175.316.263.077.061.154.122.234.183s.178.138.271.207a16.785,16.785,0,0,0,1.618,1.063c.082.048.165.093.25.138.244.135.494.266.746.388.1.05.2.1.308.146s.194.09.292.13l.228.1.218.088a15.7,15.7,0,0,0,2.035.664c.117.032.236.061.356.088s.228.053.343.077c.284.059.571.109.858.154q.2.032.406.056c.125.019.25.032.377.045.162.016.324.032.489.042.106.008.215.016.321.021.09.005.181.008.274.011s.167.008.252.008c.122,0,.242.005.364.005s.242,0,.364-.005c.085,0,.167,0,.252-.008s.183-.005.274-.011c.106-.005.215-.013.321-.021.165-.011.327-.027.489-.042.128-.013.252-.027.377-.045s.274-.035.406-.056c.287-.045.574-.1.858-.154.114-.024.228-.05.343-.077s.239-.056.356-.088a15.7,15.7,0,0,0,2.035-.664l.218-.088.228-.1c.1-.04.2-.085.292-.13s.207-.1.308-.146c.252-.122.5-.252.746-.388.085-.045.167-.09.25-.138a16.785,16.785,0,0,0,1.618-1.062c.093-.069.181-.138.271-.207s.157-.122.234-.183c.106-.088.213-.175.316-.263.08-.066.157-.133.234-.2a16.37,16.37,0,0,0,1.209-1.182c.066-.069.13-.141.2-.213a.6.6,0,0,1,.053-.061c.066-.077.135-.154.2-.234s.146-.173.218-.26.165-.2.244-.305c.125-.162.247-.324.367-.491.135-.186.266-.377.391-.571.064-.093.125-.189.183-.284a16.265,16.265,0,0,0,1.865-4.187c.037-.13.072-.26.106-.391s.066-.26.1-.393c.008-.032.016-.064.021-.1a16.268,16.268,0,0,0,.4-3.586c0-.045,0-.088,0-.133m-5.531,3.719a11.485,11.485,0,1,1,.619-3.719,11.426,11.426,0,0,1-.619,3.719" transform="translate(-177.81 -187.169)" fill="#21253c"/>
      <path id="Caminho_479" data-name="Caminho 479" d="M283.314,280.969a11.485,11.485,0,1,0,.531,3.453,11.428,11.428,0,0,0-.531-3.453m-1.727,3.453v.133c0-.045,0-.088,0-.133Zm-18.329,0h0c0,.045,0,.088,0,.133Z" transform="translate(-191.395 -200.388)" fill="#43d7c2"/>
      <path id="Caminho_480" data-name="Caminho 480" d="M269.5,316h0c0,.045,0,.088,0,.133Z" transform="translate(-197.637 -231.965)" fill="#43d7c2"/>
      <path id="Caminho_481" data-name="Caminho 481" d="M338.493,316v.133c0-.045,0-.088,0-.133Z" transform="translate(-248.301 -231.965)" fill="#43d7c2"/>
    </g>
  </g>
</svg>
