<svg id="Componente_37_1" data-name="Componente 37 – 1" xmlns="http://www.w3.org/2000/svg" xmlns:xlink="http://www.w3.org/1999/xlink" width="209" height="209" viewBox="0 0 209 209">
  <defs>
    <clipPath id="clip-path">
      <rect id="Retângulo_140" data-name="Retângulo 140" width="122" height="95" transform="translate(0 0)" fill="none"/>
    </clipPath>
  </defs>
  <rect id="Retângulo_149" data-name="Retângulo 149" width="209" height="209" rx="34" fill="#fff"/>
  <path id="Caminho_466" data-name="Caminho 466" d="M257.236,33.79H228.13L230.357,27h24.652Z" transform="translate(-138.366 35.461)" fill="#e56557"/>
  <g id="Grupo_190" data-name="Grupo 190" transform="translate(44 57)">
    <g id="Grupo_189" data-name="Grupo 189" clip-path="url(#clip-path)">
      <path id="Caminho_467" data-name="Caminho 467" d="M269.5,316h0c0,.034,0,.066,0,.1Z" transform="translate(-215.474 -252.823)" fill="#59c9f4"/>
      <path id="Caminho_468" data-name="Caminho 468" d="M338.492,316v.1c0-.034,0-.066,0-.1Z" transform="translate(-270.686 -252.823)" fill="#59c9f4"/>
      <path id="Caminho_469" data-name="Caminho 469" d="M154.455,316v24.1a2.259,2.259,0,0,1-2.257,2.257H57.257A2.259,2.259,0,0,1,55,340.1V316h.9c.28.156.563.3.849.443.068.034.136.068.206.1.13.064.262.126.393.186q.318.147.641.282c.112.05.226.1.34.142.176.072.353.14.531.206.062.024.126.048.192.07.144.054.29.106.435.154l.068.024c.158.052.316.1.473.154a.052.052,0,0,1,.016.006c.17.052.34.1.511.152.038.01.076.02.112.032.154.042.308.084.461.124l.02,0c.18.046.357.09.539.132a.029.029,0,0,1,.014,0c.158.036.32.07.479.1.066.014.134.028.2.04q.174.036.347.066c.05.01.1.018.148.026.172.032.345.06.517.086s.332.048.5.07c.25.032.5.06.751.084.134.014.266.024.4.034.048.006.1.008.148.012.174.014.347.024.523.032s.349.016.527.02c.042,0,.084,0,.126,0,.174.006.347.008.523.008H92.745c0,.026.01.05.016.074.022.1.046.2.072.3s.052.2.08.294a12.227,12.227,0,0,0,1.4,3.147c.044.072.09.144.138.214.094.146.192.29.294.429s.182.248.276.369c.06.078.122.154.184.23s.108.132.164.2.1.118.15.176a.437.437,0,0,1,.04.046c.05.054.1.108.148.16a12.311,12.311,0,0,0,.909.889c.058.052.116.1.176.152.078.066.158.132.238.2.058.046.116.092.176.138s.134.1.2.156a12.623,12.623,0,0,0,1.216.8c.062.036.124.07.188.1.184.1.371.2.561.292.076.038.154.074.232.11s.146.068.22.1l.172.076.164.066a11.806,11.806,0,0,0,1.53.5c.088.024.178.046.268.066s.172.04.258.058c.214.044.429.082.645.116q.15.024.306.042c.094.014.188.024.284.034.122.012.244.024.367.032.08.006.162.012.242.016s.136.006.206.008.126.006.19.006c.092,0,.182,0,.274,0s.182,0,.274,0c.064,0,.126,0,.19-.006s.138,0,.206-.008.162-.01.242-.016c.124-.008.246-.02.367-.032.1-.01.19-.02.284-.034s.206-.026.306-.042c.216-.034.431-.072.645-.116.086-.018.172-.038.258-.058s.18-.042.268-.066a11.806,11.806,0,0,0,1.53-.5l.164-.066.172-.076c.074-.03.148-.064.22-.1s.156-.072.232-.11c.19-.092.377-.19.561-.292.064-.034.126-.068.188-.1a12.622,12.622,0,0,0,1.216-.8c.07-.052.136-.1.2-.156s.118-.092.176-.138c.08-.066.16-.132.238-.2.06-.05.118-.1.176-.152a12.31,12.31,0,0,0,.909-.889c.05-.052.1-.106.148-.16a.436.436,0,0,1,.04-.046c.05-.058.1-.116.15-.176s.11-.13.164-.2.124-.152.184-.23c.094-.122.186-.244.276-.369s.2-.284.294-.429c.048-.07.094-.142.138-.214a12.227,12.227,0,0,0,1.4-3.147c.028-.1.054-.2.08-.294s.05-.2.072-.3c.006-.024.012-.048.016-.074h25.856c.176,0,.349,0,.523-.008.042,0,.084,0,.126,0,.178,0,.353-.01.527-.02s.349-.018.523-.032c.05,0,.1-.006.148-.012.134-.01.266-.02.4-.034.252-.024.5-.052.751-.084.166-.022.331-.044.5-.07s.346-.054.517-.086c.05-.008.1-.016.148-.026q.174-.03.347-.066c.066-.012.134-.026.2-.04.16-.034.322-.068.479-.1a.029.029,0,0,1,.014,0c.182-.042.359-.086.539-.132l.02,0c.154-.04.308-.082.461-.124.036-.012.074-.022.112-.032.172-.05.342-.1.511-.152a.052.052,0,0,1,.016-.006c.158-.05.316-.1.473-.154l.068-.024c.146-.048.292-.1.435-.154.066-.022.13-.046.192-.07.178-.066.355-.134.531-.206.114-.046.228-.092.34-.142q.324-.135.641-.282c.132-.06.264-.122.393-.186.07-.032.138-.066.206-.1.286-.142.569-.288.849-.443Z" transform="translate(-43.811 -252.823)" fill="#59c9f4"/>
      <path id="Caminho_470" data-name="Caminho 470" d="M138.239,290.51v29.2a7.657,7.657,0,0,1-7.649,7.649H35.649A7.657,7.657,0,0,1,28,319.705v-29.2q.362.416.747.819a22.855,22.855,0,0,0,1.949,1.817,22.545,22.545,0,0,0,2.7,1.933v24.626a2.259,2.259,0,0,0,2.257,2.257H130.59a2.259,2.259,0,0,0,2.257-2.257V295.079a22.546,22.546,0,0,0,2.7-1.933,22.856,22.856,0,0,0,1.949-1.817q.383-.4.747-.819" transform="translate(-22.203 -232.423)" fill="#3b3e43"/>
      <path id="Caminho_471" data-name="Caminho 471" d="M549.4,313.39v.521h-.9c.058-.032.118-.064.176-.1.244-.136.483-.278.723-.423" transform="translate(-438.755 -250.734)" fill="#facd4a"/>
      <path id="Caminho_472" data-name="Caminho 472" d="M55.9,313.911H55v-.521c.24.146.479.288.723.423.058.034.118.066.176.1" transform="translate(-43.811 -250.734)" fill="#facd4a"/>
      <path id="Caminho_473" data-name="Caminho 473" d="M137.638,91.091v22.365a17.482,17.482,0,0,1-17.48,17.48H94.3c0-.026-.01-.05-.016-.074-.022-.1-.046-.2-.072-.3s-.052-.2-.08-.294a12.227,12.227,0,0,0-1.4-3.147c-.044-.072-.09-.144-.138-.214-.094-.146-.192-.288-.294-.429-.09-.126-.182-.248-.276-.369-.06-.076-.122-.154-.184-.23s-.108-.132-.164-.2-.1-.118-.15-.176c-.014-.016-.028-.03-.04-.046-.05-.054-.1-.108-.148-.16q-.431-.467-.909-.889c-.058-.052-.116-.1-.176-.152-.078-.066-.158-.132-.238-.2-.058-.046-.116-.092-.176-.138s-.134-.1-.2-.156a12.627,12.627,0,0,0-1.216-.8c-.062-.036-.124-.07-.188-.1-.184-.1-.371-.2-.561-.292-.076-.038-.154-.074-.232-.11s-.146-.068-.22-.1c-.058-.026-.116-.05-.172-.074s-.11-.046-.164-.068a11.7,11.7,0,0,0-1.53-.5c-.088-.024-.178-.046-.268-.066s-.172-.04-.258-.058c-.214-.044-.427-.082-.645-.116q-.15-.024-.306-.042c-.094-.014-.188-.024-.284-.034-.122-.012-.246-.024-.367-.032-.08-.006-.162-.012-.242-.016s-.138-.006-.206-.008-.126-.006-.19-.006c-.092,0-.182,0-.274,0s-.182,0-.274,0c-.064,0-.126,0-.19.006s-.138,0-.206.008-.162.01-.242.016c-.122.008-.246.02-.367.032-.1.01-.19.02-.284.034s-.206.026-.306.042c-.218.034-.431.072-.645.116-.086.018-.172.038-.258.058s-.18.042-.268.066a11.7,11.7,0,0,0-1.53.5c-.054.022-.11.044-.164.068s-.114.048-.172.074c-.074.03-.148.064-.22.1s-.156.072-.232.11c-.19.092-.377.19-.561.292-.064.034-.126.068-.188.1a12.628,12.628,0,0,0-1.216.8c-.07.052-.136.1-.2.156s-.118.092-.176.138c-.08.066-.16.132-.238.2-.06.05-.118.1-.176.152q-.476.422-.909.889c-.05.052-.1.106-.148.16-.012.016-.026.03-.04.046-.05.058-.1.116-.15.176s-.11.13-.164.2-.124.154-.184.23c-.094.122-.186.244-.276.369-.1.142-.2.284-.294.429-.048.07-.094.142-.138.214a12.226,12.226,0,0,0-1.4,3.147c-.028.1-.054.2-.08.294s-.05.2-.072.3c-.006.024-.012.048-.016.074H44.48A17.482,17.482,0,0,1,27,113.457V91.091A3.094,3.094,0,0,1,30.091,88H134.547a3.094,3.094,0,0,1,3.091,3.091" transform="translate(-21.403 -70.356)" fill="#facd4a"/>
      <path id="Caminho_474" data-name="Caminho 474" d="M243.99,302.7h0c0-.026.01-.05.016-.074l-.018.074m18.872,2.6c0,.034,0,.066,0,.1v-.1Zm-13.778,0v.1c0-.034,0-.066,0-.1Zm0,0v.1c0-.034,0-.066,0-.1Zm13.778,0c0,.034,0,.066,0,.1v-.1Zm5.079-2.67c.006.024.012.048.016.074h0l-.018-.074m0,0c.006.024.012.048.016.074h0l-.018-.074m-5.079,2.67c0,.034,0,.066,0,.1v-.1Zm-13.778,0v.1c0-.034,0-.066,0-.1Zm-5.095-2.6h0c0-.026.01-.05.016-.074l-.018.074m18.872,2.6c0,.034,0,.066,0,.1v-.1Zm-13.778,0v.1c0-.034,0-.066,0-.1Z" transform="translate(-195.058 -242.123)" fill="#3b3e43"/>
      <path id="Caminho_475" data-name="Caminho 475" d="M283.278,316c0,.034,0,.066,0,.1V316Zm-13.778.1c0-.034,0-.066,0-.1h0Z" transform="translate(-215.474 -252.823)" fill="#3b3e43"/>
      <path id="Caminho_476" data-name="Caminho 476" d="M267.957,330c0,.026-.01.05-.016.074l.018-.074Zm-23.965,0h0l.018.074c-.006-.024-.012-.048-.016-.074m23.965,0c0,.026-.01.05-.016.074l.018-.074Zm-23.965,0h0l.018.074c-.006-.024-.012-.048-.016-.074m23.965,0c0,.026-.01.05-.016.074l.018-.074Z" transform="translate(-195.058 -264.027)" fill="#3b3e43"/>
      <path id="Caminho_477" data-name="Caminho 477" d="M112.939,12.182h-32.6L76.344,0H43.88L39.886,12.182H8.484A8.494,8.494,0,0,0,0,20.666V43.031A22.756,22.756,0,0,0,5.592,58.017q.362.416.747.819a22.855,22.855,0,0,0,1.949,1.817,22.545,22.545,0,0,0,2.7,1.933c.24.146.479.288.723.423.058.034.118.066.176.1h0c.28.156.563.3.849.443.068.034.136.068.206.1.13.064.262.126.393.186q.318.147.641.282c.112.05.226.1.34.142.176.072.353.14.531.206.062.024.126.048.192.07.144.054.29.106.435.154l.068.024c.158.052.316.1.473.154a.052.052,0,0,1,.016.006c.17.052.34.1.511.152.038.01.076.02.112.032.154.042.308.084.461.124l.02,0c.18.046.357.09.539.132a.029.029,0,0,1,.014,0c.158.036.32.07.479.1.066.014.134.028.2.04q.174.036.347.066c.05.01.1.018.148.026.172.032.345.06.517.086s.332.048.5.07c.25.032.5.06.751.084.134.014.266.024.4.034.048.006.1.008.148.012.174.014.347.024.523.032s.349.016.527.02c.042,0,.084,0,.126,0,.174.006.347.008.523.008H48.729a12.232,12.232,0,0,1-.3-2.7c0-.034,0-.066,0-.1a12.1,12.1,0,0,1,.3-2.6H22.873a17.482,17.482,0,0,1-17.48-17.48V20.666a3.094,3.094,0,0,1,3.091-3.091H112.939a3.094,3.094,0,0,1,3.091,3.091V43.031a17.482,17.482,0,0,1-17.48,17.48H72.694a12.1,12.1,0,0,1,.3,2.6c0,.034,0,.066,0,.1a12.231,12.231,0,0,1-.3,2.7H98.55c.176,0,.349,0,.523-.008.042,0,.084,0,.126,0,.178,0,.353-.01.527-.02s.349-.018.523-.032c.05,0,.1-.006.148-.012.134-.01.266-.02.4-.034.252-.024.5-.052.751-.084.166-.022.332-.044.5-.07s.346-.054.517-.086c.05-.008.1-.016.148-.026q.174-.03.347-.066c.066-.012.134-.026.2-.04.16-.034.322-.068.479-.1a.029.029,0,0,1,.014,0c.182-.042.359-.086.539-.132l.02,0c.154-.04.308-.082.461-.124.036-.012.074-.022.112-.032.172-.05.342-.1.511-.152a.052.052,0,0,1,.016-.006c.158-.05.316-.1.473-.154l.068-.024c.146-.048.292-.1.435-.154.066-.022.13-.046.192-.07.178-.066.355-.134.531-.206.114-.046.228-.092.34-.142q.324-.135.641-.282c.132-.06.264-.122.393-.186.07-.032.138-.066.206-.1.286-.142.569-.288.849-.443h0c.058-.032.118-.064.176-.1.244-.136.483-.278.723-.423a22.545,22.545,0,0,0,2.7-1.933,22.857,22.857,0,0,0,1.949-1.817q.383-.4.747-.819a22.756,22.756,0,0,0,5.592-14.986V20.666a8.494,8.494,0,0,0-8.484-8.484m-67.38,0,2.227-6.79H72.438l2.227,6.79Z" transform="translate(0.205 0.069)" fill="#3b3e43"/>
      <path id="Caminho_478" data-name="Caminho 478" d="M267.062,267.182a12.1,12.1,0,0,0-.3-2.6c0-.026-.01-.05-.016-.074-.022-.1-.046-.2-.072-.3s-.052-.2-.08-.294a12.227,12.227,0,0,0-1.4-3.147c-.044-.072-.09-.144-.138-.214-.094-.146-.192-.288-.294-.429-.09-.126-.182-.248-.276-.369-.06-.076-.122-.154-.184-.23s-.108-.132-.164-.2-.1-.118-.15-.176c-.014-.016-.028-.03-.04-.046-.05-.054-.1-.108-.148-.16q-.431-.467-.909-.889c-.058-.052-.116-.1-.176-.152-.078-.066-.158-.132-.238-.2-.058-.046-.116-.092-.176-.138s-.134-.1-.2-.156a12.629,12.629,0,0,0-1.216-.8c-.062-.036-.124-.07-.188-.1-.184-.1-.371-.2-.561-.292-.076-.038-.154-.074-.232-.11s-.146-.068-.22-.1c-.058-.026-.116-.05-.172-.074s-.11-.046-.164-.068a11.692,11.692,0,0,0-1.53-.5c-.088-.024-.178-.046-.268-.066s-.172-.04-.258-.058c-.214-.044-.427-.082-.645-.116q-.15-.024-.306-.042c-.094-.014-.188-.024-.284-.034-.122-.012-.246-.024-.367-.032-.08-.006-.162-.012-.242-.016s-.138-.006-.206-.008-.126-.006-.19-.006c-.092,0-.182,0-.274,0s-.182,0-.274,0c-.064,0-.126,0-.19.006s-.138,0-.206.008-.162.01-.242.016c-.122.008-.246.02-.367.032-.1.01-.19.02-.284.034s-.206.026-.306.042c-.218.034-.431.072-.645.116-.086.018-.172.038-.258.058s-.18.042-.268.066a11.692,11.692,0,0,0-1.53.5c-.054.022-.11.044-.164.068s-.114.048-.172.074c-.074.03-.148.064-.22.1s-.156.072-.232.11c-.19.092-.377.19-.561.292-.064.034-.126.068-.188.1a12.626,12.626,0,0,0-1.216.8c-.07.052-.136.1-.2.156s-.118.092-.176.138c-.08.066-.16.132-.238.2-.06.05-.118.1-.176.152q-.476.422-.909.889c-.05.052-.1.106-.148.16-.012.016-.026.03-.04.046-.05.058-.1.116-.15.176s-.11.13-.164.2-.124.154-.184.23c-.094.122-.186.244-.276.369-.1.142-.2.284-.294.429-.048.07-.094.142-.138.214a12.229,12.229,0,0,0-1.4,3.147c-.028.1-.054.2-.08.294s-.05.2-.072.3c-.006.024-.012.048-.016.074a12.1,12.1,0,0,0-.3,2.6c0,.034,0,.066,0,.1a12.232,12.232,0,0,0,.3,2.7c0,.026.01.05.016.074.022.1.046.2.072.3s.052.2.08.294a12.229,12.229,0,0,0,1.4,3.147c.044.072.09.144.138.214.094.146.192.29.294.429s.182.248.276.369c.06.078.122.154.184.23s.108.132.164.2.1.118.15.176a.442.442,0,0,1,.04.046c.05.054.1.108.148.16a12.31,12.31,0,0,0,.909.889c.058.052.116.1.176.152.078.066.158.132.238.2.058.046.116.092.176.138s.134.1.2.156a12.614,12.614,0,0,0,1.216.8c.062.036.124.07.188.1.184.1.371.2.561.292.076.038.154.074.232.11s.146.068.22.1l.172.076.164.066a11.806,11.806,0,0,0,1.53.5c.088.024.178.046.268.066s.172.04.258.058c.214.044.429.082.645.116q.15.024.306.042c.094.014.188.024.284.034.122.012.244.024.367.032.08.006.162.012.242.016s.136.006.206.008.126.006.19.006c.092,0,.182,0,.274,0s.182,0,.274,0c.064,0,.126,0,.19-.006s.138,0,.206-.008.162-.01.242-.016c.124-.008.246-.02.367-.032.1-.01.19-.02.284-.034s.206-.026.306-.042c.216-.034.431-.072.645-.116.086-.018.172-.038.258-.058s.18-.042.268-.066a11.806,11.806,0,0,0,1.53-.5l.164-.066.172-.076c.074-.03.148-.064.22-.1s.156-.072.232-.11c.19-.092.377-.19.561-.292.064-.034.126-.068.188-.1a12.618,12.618,0,0,0,1.216-.8c.07-.052.136-.1.2-.156s.118-.092.176-.138c.08-.066.16-.132.238-.2.06-.05.118-.1.176-.152a12.309,12.309,0,0,0,.909-.889c.05-.052.1-.106.148-.16a.446.446,0,0,1,.04-.046c.05-.058.1-.116.15-.176s.11-.13.164-.2.124-.152.184-.23c.094-.122.186-.244.276-.369s.2-.284.294-.429c.048-.07.094-.142.138-.214a12.227,12.227,0,0,0,1.4-3.147c.028-.1.054-.2.08-.294s.05-.2.072-.3c.006-.024.012-.048.016-.074a12.23,12.23,0,0,0,.3-2.7c0-.034,0-.066,0-.1m-4.158,2.8a8.634,8.634,0,1,1,.465-2.8,8.59,8.59,0,0,1-.465,2.8" transform="translate(-193.866 -204.005)" fill="#3b3e43"/>
      <path id="Caminho_479" data-name="Caminho 479" d="M277.776,278.991a8.635,8.635,0,1,0,.4,2.6,8.592,8.592,0,0,0-.4-2.6m-1.3,2.6v.1c0-.034,0-.066,0-.1Zm-13.78,0h0c0,.034,0,.066,0,.1Z" transform="translate(-208.671 -218.41)" fill="#43d7c2"/>
      <path id="Caminho_480" data-name="Caminho 480" d="M269.5,316h0c0,.034,0,.066,0,.1Z" transform="translate(-215.474 -252.823)" fill="#43d7c2"/>
      <path id="Caminho_481" data-name="Caminho 481" d="M338.492,316v.1c0-.034,0-.066,0-.1Z" transform="translate(-270.686 -252.823)" fill="#43d7c2"/>
    </g>
  </g>
</svg>
