<svg xmlns="http://www.w3.org/2000/svg" xmlns:xlink="http://www.w3.org/1999/xlink" width="55.682" height="55.65" viewBox="0 0 55.682 55.65">
  <defs>
    <clipPath id="clip-path">
      <path id="Caminho_776" data-name="Caminho 776" d="M70.968.657q-4.049,4.065-8.116,8.112a1.7,1.7,0,0,0-.647,1.541c-.235-.132-.348-.191-.456-.257a24.477,24.477,0,0,0-10-3.421,23.075,23.075,0,0,0-6.336.12,24.558,24.558,0,0,0-12.149,5.431,1.293,1.293,0,0,0-.556.72,1.06,1.06,0,0,0,.4,1.171,1.077,1.077,0,0,0,1.418-.135,21.294,21.294,0,0,1,4.276-2.871A22.763,22.763,0,0,1,51.955,8.874,22.271,22.271,0,0,1,61.679,12.6c.231.156.568.328.621.548a10.262,10.262,0,0,1,.187,2.7c-.015.477-.5.7-.8,1-1.684,1.708-3.384,3.4-5.094,5.11a12.439,12.439,0,0,0-7.081-2.705,11.849,11.849,0,1,0,1.911,23.432A11.492,11.492,0,0,0,56.049,40.6a1.129,1.129,0,0,0,.414-1.6c-.38-.564-.995-.622-1.7-.157-.151.1-.3.209-.446.308a9.671,9.671,0,0,1-13.968-3.707,9.245,9.245,0,0,1,.708-9.911,9.291,9.291,0,0,1,9.151-4.052,8.77,8.77,0,0,1,4.894,2.141,7.531,7.531,0,0,0-.75.57q-3,2.978-5.979,5.973c-.593.6-.62,1.216-.114,1.688a1.058,1.058,0,0,0,1.579-.112c.625-.594,1.229-1.209,1.939-1.91a3.113,3.113,0,0,1-.609,3.323,3.017,3.017,0,0,1-5.192-2.018,2.959,2.959,0,0,1,1.855-2.868c.119-.05.243-.088.362-.137a1.084,1.084,0,1,0-.672-2.055,5.213,5.213,0,0,0,.947,10.2,5.212,5.212,0,0,0,5.182-7.53c-.11-.247-.337-.475-.046-.763.967-.957,1.922-1.925,2.929-2.937A9.508,9.508,0,0,1,58.444,29a12.145,12.145,0,0,1,.193,2.929,1.065,1.065,0,0,0,1.077,1.167A1.034,1.034,0,0,0,60.8,32.021a11.866,11.866,0,0,0-.133-3.007,12.07,12.07,0,0,0-2.483-5.442l2.9-2.879a1.41,1.41,0,0,1,.221.2A15.419,15.419,0,0,1,64.729,33.43a15.947,15.947,0,0,1-29.306,5.932,15.051,15.051,0,0,1-2.312-9.2,15.261,15.261,0,0,1,6.314-11.827C44.982,14.288,50.9,14,56.975,17.226c.8.425,1.411.348,1.756-.239s.128-1.182-.662-1.636a17.761,17.761,0,0,0-12.174-2.187,18.171,18.171,0,0,0,5.1,35.969c7.982-1,13.251-5.612,15.5-13.347a17.2,17.2,0,0,0-2.257-14.534c-.494-.776-1.082-1.482-1.577-2.178A2.642,2.642,0,0,1,65.711,17.6c1.247.25,2.53.057,3.783.249a2,2,0,0,0,1.862-.682c2.187-2.235,4.413-4.432,6.624-6.643.585-.585,1.172-1.168,1.752-1.757a1.089,1.089,0,0,0,.338-.766V7.985a1.256,1.256,0,0,0-.085-.43A.98.98,0,0,0,79.1,6.9c-1.134-.075-2.269-.141-3.405-.169a.99.99,0,0,0-1.062,1.01,1.026,1.026,0,0,0,.877,1.113,6.764,6.764,0,0,0,.923.093c-.226.245-.389.434-.565.61-1.643,1.646-3.338,3.245-4.911,4.955A2.881,2.881,0,0,1,68.2,15.6c-1.161-.163-2.346-.156-3.527-.223-.081-1.6-.142-3.094-.244-4.589a1.119,1.119,0,0,1,.416-.938q2.612-2.6,5.209-5.208c.32-.322.605-.679.907-1.02a27.991,27.991,0,0,1,.373,3.72c.047.873.493,1.4,1.151,1.367.684-.035,1.06-.543,1.017-1.451-.092-1.909-.216-3.817-.306-5.726C73.171.944,73.155.363,72.519.094A1.1,1.1,0,0,0,72.087,0a1.685,1.685,0,0,0-1.119.657" transform="translate(-30.76)" fill="#f1f9ff"/>
    </clipPath>
    <clipPath id="clip-path-2">
      <path id="Caminho_777" data-name="Caminho 777" d="M3.341,92.911a1.394,1.394,0,0,0-.754.836A24.2,24.2,0,0,0,1.05,111.674,24.534,24.534,0,0,0,24.589,129.26h.254a24.149,24.149,0,0,0,11.1-2.77,23.426,23.426,0,0,0,8.228-6.931,23.314,23.314,0,0,0,4.525-10.344,29.063,29.063,0,0,0,.511-4.993,23.743,23.743,0,0,0-1.3-7.41,24.872,24.872,0,0,0-1.083-2.647.957.957,0,0,0-1.36-.514,1.016,1.016,0,0,0-.588,1.4c.088.242.2.475.3.712a22.1,22.1,0,0,1,1.558,12.428,22.375,22.375,0,0,1-28.238,18.021,21.736,21.736,0,0,1-13.545-10.8A22.407,22.407,0,0,1,4.6,94.541a1.106,1.106,0,0,0-.121-1.363.991.991,0,0,0-.736-.339,1.2,1.2,0,0,0-.4.072" transform="translate(0 -92.839)" fill="#f1f9ff"/>
    </clipPath>
    <clipPath id="clip-path-3">
      <path id="Caminho_778" data-name="Caminho 778" d="M25.188,72.417a2.223,2.223,0,0,0-1.551,1.818,1.068,1.068,0,0,0,1.037,1.044,2.22,2.22,0,0,0,1.641-1.823,1.09,1.09,0,0,0-1.064-1.042l-.063,0" transform="translate(-23.637 -72.415)" fill="#f1f9ff"/>
    </clipPath>
    <clipPath id="clip-path-4">
      <path id="Caminho_779" data-name="Caminho 779" d="M159.786,168.479a1.724,1.724,0,0,0-1.358,1.708,1.059,1.059,0,0,0,1.139,1,1.809,1.809,0,0,0,1.332-1.661,1.1,1.1,0,0,0-1.085-1.047h-.028" transform="translate(-158.426 -168.479)" fill="#f1f9ff"/>
    </clipPath>
  </defs>
  <g id="Grupo_313" data-name="Grupo 313" transform="translate(0)">
    <g id="Grupo_314" data-name="Grupo 314" transform="translate(6.371)">
      <g id="Grupo_313-2" data-name="Grupo 313" clip-path="url(#clip-path)">
        <rect id="Retângulo_637" data-name="Retângulo 637" width="51.025" height="50.36" transform="translate(-1.714)" fill="#f1f9ff"/>
      </g>
    </g>
    <g id="Grupo_316" data-name="Grupo 316" transform="translate(0 19.229)">
      <g id="Grupo_315" data-name="Grupo 315" clip-path="url(#clip-path-2)">
        <rect id="Retângulo_638" data-name="Retângulo 638" width="49.995" height="37.068" transform="translate(-0.769 0)" fill="#f1f9ff"/>
      </g>
    </g>
    <g id="Grupo_318" data-name="Grupo 318" transform="translate(4.896 14.998)">
      <g id="Grupo_317" data-name="Grupo 317" clip-path="url(#clip-path-3)">
        <rect id="Retângulo_639" data-name="Retângulo 639" width="2.723" height="2.871" transform="translate(-0.022 0)" fill="#f1f9ff"/>
      </g>
    </g>
    <g id="Grupo_320" data-name="Grupo 320" transform="translate(32.813 34.895)">
      <g id="Grupo_319" data-name="Grupo 319" clip-path="url(#clip-path-4)">
        <rect id="Retângulo_640" data-name="Retângulo 640" width="2.543" height="2.739" transform="translate(-0.046)" fill="#f1f9ff"/>
      </g>
    </g>
  </g>
</svg>
